<svg id="svg" version="1.1" xmlns="http://www.w3.org/2000/svg" xmlns:xlink="http://www.w3.org/1999/xlink" width="400" height="109.06666666666668" viewBox="0, 0, 400,109.06666666666668"><g id="svgg"><path id="path0" d="M376.667 28.313 C 376.667 28.602,377.031 28.720,377.180 28.480 C 377.300 28.287,377.381 28.286,377.681 28.472 C 377.938 28.631,378.090 28.643,378.220 28.514 C 378.319 28.414,378.366 28.327,378.325 28.319 C 377.595 28.184,376.667 28.180,376.667 28.313 M372.420 28.495 C 372.361 28.589,371.868 28.667,371.323 28.667 C 370.572 28.667,370.333 28.725,370.333 28.907 C 370.333 29.039,370.253 29.196,370.156 29.257 C 370.049 29.323,369.999 29.245,370.031 29.066 C 370.070 28.842,369.965 28.754,369.625 28.725 C 369.373 28.704,369.167 28.738,369.167 28.802 C 369.167 28.865,368.698 28.923,368.125 28.930 C 367.552 28.938,366.633 29.000,366.083 29.069 C 365.533 29.137,364.690 29.197,364.208 29.201 C 363.727 29.205,363.333 29.263,363.333 29.329 C 363.333 29.439,360.737 29.701,359.625 29.704 C 359.373 29.705,359.167 29.772,359.167 29.853 C 359.167 29.934,358.698 30.001,358.125 30.003 C 357.492 30.004,357.171 30.060,357.306 30.146 C 357.639 30.357,356.892 30.514,356.417 30.333 C 355.994 30.173,355.333 30.288,355.333 30.523 C 355.333 30.605,355.135 30.623,354.892 30.562 C 354.541 30.474,354.479 30.499,354.590 30.684 C 354.707 30.877,354.686 30.880,354.466 30.702 C 354.199 30.486,353.824 30.485,353.662 30.701 C 353.613 30.765,353.275 30.834,352.912 30.854 C 352.548 30.873,352.175 30.933,352.083 30.986 C 351.992 31.039,351.654 31.097,351.333 31.115 C 350.032 31.187,348.343 31.548,348.445 31.731 C 348.507 31.842,348.462 31.836,348.332 31.716 C 348.195 31.590,348.015 31.569,347.844 31.661 C 347.694 31.741,347.349 31.838,347.078 31.877 C 346.459 31.965,345.954 32.172,345.792 32.405 C 345.703 32.531,345.630 32.530,345.542 32.401 C 345.380 32.164,344.130 32.306,344.277 32.544 C 344.336 32.640,344.317 32.678,344.234 32.629 C 344.095 32.546,342.585 32.726,342.000 32.894 C 341.203 33.123,341.000 33.225,340.997 33.394 C 340.996 33.502,340.931 33.482,340.846 33.348 C 340.721 33.150,340.651 33.158,340.408 33.402 C 340.220 33.590,339.982 33.656,339.726 33.592 C 339.510 33.538,339.333 33.568,339.333 33.659 C 339.333 33.755,339.121 33.782,338.833 33.725 C 338.537 33.666,338.333 33.695,338.333 33.796 C 338.333 33.890,337.883 34.020,337.333 34.083 C 336.783 34.147,336.291 34.267,336.240 34.350 C 336.189 34.432,335.926 34.500,335.657 34.500 C 335.387 34.500,335.167 34.575,335.167 34.667 C 335.167 34.758,334.979 34.833,334.750 34.833 C 334.521 34.833,334.333 34.916,334.333 35.018 C 334.333 35.119,334.221 35.159,334.083 35.106 C 333.946 35.054,333.833 35.092,333.833 35.192 C 333.833 35.305,333.728 35.287,333.556 35.145 C 333.340 34.967,333.264 34.963,333.209 35.125 C 333.170 35.240,332.953 35.333,332.726 35.333 C 332.494 35.333,332.359 35.406,332.417 35.500 C 332.478 35.599,332.278 35.667,331.921 35.667 C 331.539 35.667,331.288 35.758,331.225 35.921 C 331.147 36.124,331.078 36.134,330.885 35.973 C 330.711 35.830,330.609 35.824,330.529 35.954 C 330.467 36.054,330.134 36.189,329.789 36.254 C 329.445 36.318,329.122 36.438,329.072 36.519 C 329.021 36.600,328.722 36.667,328.407 36.667 C 328.091 36.667,327.833 36.739,327.833 36.828 C 327.833 36.917,327.728 36.949,327.600 36.900 C 327.472 36.851,327.318 36.891,327.257 36.989 C 327.197 37.087,326.999 37.167,326.818 37.167 C 326.637 37.167,326.451 37.268,326.403 37.392 C 326.350 37.530,326.158 37.587,325.908 37.539 C 325.678 37.495,325.500 37.540,325.500 37.642 C 325.500 37.741,325.387 37.780,325.250 37.727 C 325.112 37.674,325.000 37.714,325.000 37.816 C 325.000 37.917,324.808 38.000,324.573 38.000 C 324.339 38.000,324.185 38.061,324.231 38.137 C 324.278 38.212,324.095 38.241,323.825 38.201 C 323.532 38.158,323.333 38.204,323.333 38.314 C 323.333 38.416,323.133 38.500,322.889 38.500 C 322.644 38.500,322.490 38.545,322.546 38.601 C 322.717 38.772,322.265 39.145,322.075 38.990 C 321.878 38.830,321.167 38.968,321.167 39.167 C 321.167 39.275,320.555 39.511,320.352 39.481 C 320.316 39.476,320.224 39.572,320.146 39.694 C 320.043 39.856,320.004 39.861,320.003 39.711 C 320.001 39.568,319.836 39.597,319.458 39.809 C 318.909 40.116,318.020 40.411,317.792 40.361 C 317.723 40.346,317.667 40.399,317.667 40.479 C 317.667 40.559,317.450 40.668,317.186 40.721 C 316.921 40.774,316.456 41.045,316.152 41.322 C 315.802 41.642,315.558 41.761,315.487 41.646 C 315.420 41.538,315.218 41.514,314.987 41.587 C 314.577 41.718,314.136 42.081,314.250 42.194 C 314.287 42.232,314.130 42.277,313.900 42.297 C 313.670 42.316,313.346 42.404,313.180 42.493 C 313.013 42.582,312.830 42.608,312.772 42.550 C 312.714 42.492,312.667 42.532,312.667 42.639 C 312.667 42.746,312.558 42.833,312.425 42.833 C 312.292 42.833,312.107 42.965,312.013 43.125 C 311.879 43.355,311.842 43.364,311.836 43.167 C 311.831 43.017,311.779 42.985,311.706 43.086 C 311.638 43.179,311.271 43.403,310.890 43.584 C 310.509 43.765,310.242 43.989,310.297 44.082 C 310.352 44.174,310.270 44.147,310.115 44.021 C 309.960 43.895,309.824 43.839,309.813 43.896 C 309.801 43.953,309.782 44.069,309.771 44.153 C 309.759 44.237,309.682 44.368,309.598 44.444 C 309.510 44.525,309.497 44.496,309.566 44.375 C 309.788 43.990,308.265 44.586,307.625 45.135 C 307.465 45.272,307.333 45.324,307.333 45.250 C 307.333 45.176,307.183 45.289,307.000 45.500 C 306.817 45.711,306.667 45.795,306.667 45.686 C 306.667 45.541,306.579 45.535,306.340 45.663 C 306.147 45.766,306.052 45.940,306.107 46.086 C 306.160 46.222,306.126 46.333,306.032 46.333 C 305.938 46.333,305.827 46.240,305.785 46.125 C 305.733 45.982,305.594 46.036,305.344 46.295 C 305.144 46.504,304.910 46.630,304.823 46.577 C 304.737 46.524,304.667 46.560,304.667 46.657 C 304.667 46.754,304.550 46.833,304.407 46.833 C 304.264 46.833,304.193 46.907,304.249 46.998 C 304.309 47.095,304.236 47.119,304.071 47.056 C 303.898 46.989,303.733 47.054,303.636 47.228 C 303.550 47.381,303.409 47.464,303.323 47.410 C 303.237 47.357,303.167 47.398,303.167 47.500 C 303.167 47.602,303.102 47.646,303.022 47.597 C 302.943 47.548,302.744 47.656,302.580 47.837 C 302.416 48.018,302.181 48.167,302.058 48.167 C 301.934 48.167,301.833 48.239,301.833 48.328 C 301.833 48.417,301.713 48.443,301.567 48.387 C 301.420 48.331,301.251 48.354,301.192 48.438 C 301.048 48.641,300.200 49.177,300.058 49.154 C 299.997 49.145,299.880 49.256,299.798 49.402 C 299.717 49.547,299.485 49.668,299.283 49.669 C 298.986 49.671,298.964 49.702,299.167 49.833 C 299.387 49.976,299.386 49.995,299.158 49.997 C 298.747 50.002,298.003 50.398,298.001 50.613 C 298.001 50.722,297.831 50.836,297.625 50.867 C 297.419 50.899,297.269 51.017,297.292 51.129 C 297.316 51.248,297.155 51.333,296.905 51.333 C 296.669 51.333,296.372 51.427,296.244 51.542 C 295.719 52.012,295.541 52.131,295.196 52.241 C 294.996 52.304,294.833 52.426,294.833 52.511 C 294.833 52.597,294.721 52.667,294.583 52.667 C 294.446 52.667,294.333 52.754,294.333 52.861 C 294.333 52.968,294.289 53.012,294.236 52.958 C 294.148 52.871,293.679 53.207,293.073 53.792 C 292.954 53.906,292.734 54.000,292.584 54.000 C 292.381 54.000,292.340 54.091,292.423 54.354 C 292.503 54.605,292.478 54.673,292.337 54.586 C 292.130 54.457,291.000 54.980,291.000 55.205 C 291.000 55.275,290.892 55.333,290.760 55.333 C 290.628 55.333,290.466 55.420,290.401 55.526 C 290.327 55.645,290.355 55.673,290.474 55.599 C 290.580 55.534,290.667 55.555,290.667 55.646 C 290.667 55.737,290.460 55.835,290.208 55.864 C 289.930 55.896,289.687 56.060,289.590 56.281 C 289.454 56.592,289.133 56.797,288.635 56.894 C 288.397 56.940,287.858 57.636,287.968 57.753 C 288.032 57.820,287.915 57.823,287.708 57.759 C 287.430 57.674,287.333 57.711,287.333 57.905 C 287.333 58.049,287.221 58.167,287.083 58.167 C 286.936 58.167,286.832 58.321,286.831 58.542 C 286.829 58.811,286.788 58.854,286.687 58.694 C 286.574 58.515,286.527 58.523,286.445 58.736 C 286.389 58.881,286.247 59.000,286.129 59.000 C 286.010 59.000,285.708 59.191,285.457 59.423 C 285.005 59.842,284.844 60.116,285.167 59.917 C 285.258 59.860,285.333 59.893,285.333 59.990 C 285.333 60.087,285.183 60.167,285.000 60.167 C 284.817 60.167,284.667 60.246,284.667 60.343 C 284.667 60.440,284.592 60.474,284.501 60.417 C 284.410 60.361,283.979 60.670,283.543 61.105 C 283.107 61.539,282.853 61.832,282.980 61.757 C 283.139 61.662,283.184 61.691,283.126 61.852 C 283.080 61.979,282.957 62.065,282.854 62.042 C 282.751 62.019,282.676 62.056,282.686 62.125 C 282.745 62.493,282.632 62.641,282.337 62.584 C 282.145 62.547,282.023 62.604,282.045 62.719 C 282.066 62.828,281.987 62.897,281.870 62.873 C 281.753 62.850,281.607 62.962,281.546 63.123 C 281.485 63.285,281.327 63.526,281.195 63.659 C 281.033 63.823,281.016 63.922,281.143 63.964 C 281.246 63.999,281.452 64.283,281.601 64.597 L 281.871 65.167 286.591 65.167 C 291.123 65.167,291.315 65.154,291.414 64.842 C 291.471 64.663,291.607 64.551,291.717 64.594 C 291.902 64.665,292.726 64.028,292.858 63.711 C 292.890 63.634,293.252 63.311,293.663 62.994 C 294.377 62.441,295.083 61.697,295.083 61.496 C 295.083 61.444,295.290 61.195,295.542 60.943 C 295.794 60.691,296.000 60.577,296.000 60.691 C 296.000 60.804,296.153 60.732,296.340 60.531 C 296.527 60.331,296.752 60.167,296.840 60.167 C 296.928 60.167,296.981 60.073,296.958 59.958 C 296.935 59.844,297.049 59.761,297.212 59.774 C 297.398 59.789,297.490 59.698,297.462 59.525 C 297.437 59.374,297.584 59.179,297.792 59.087 C 297.998 58.996,298.167 58.864,298.167 58.794 C 298.167 58.724,298.271 58.667,298.399 58.667 C 298.527 58.667,298.674 58.554,298.727 58.417 C 298.780 58.279,298.946 58.167,299.096 58.167 C 299.270 58.167,299.334 58.076,299.273 57.917 C 299.220 57.779,299.250 57.667,299.339 57.667 C 299.427 57.667,299.503 57.760,299.506 57.875 C 299.509 57.990,299.603 57.926,299.714 57.733 C 299.826 57.540,300.013 57.416,300.130 57.457 C 300.248 57.498,300.323 57.468,300.297 57.391 C 300.271 57.313,300.312 57.236,300.387 57.220 C 300.463 57.203,300.695 57.005,300.903 56.781 C 301.111 56.556,301.453 56.318,301.663 56.251 C 301.932 56.166,301.983 56.092,301.834 56.000 C 301.577 55.842,301.787 55.446,302.070 55.555 C 302.182 55.598,302.363 55.491,302.472 55.317 C 302.580 55.143,302.811 55.000,302.984 55.000 C 303.156 55.000,303.341 54.887,303.394 54.750 C 303.446 54.612,303.642 54.500,303.828 54.500 C 304.014 54.500,304.167 54.393,304.167 54.262 C 304.167 54.130,304.335 53.999,304.542 53.970 C 304.800 53.933,304.900 53.821,304.864 53.610 C 304.825 53.380,304.888 53.328,305.116 53.400 C 305.304 53.460,305.602 53.340,305.902 53.082 C 306.168 52.853,306.482 52.667,306.600 52.667 C 306.726 52.667,306.787 52.527,306.748 52.325 C 306.694 52.045,306.745 52.002,307.025 52.091 C 307.288 52.175,307.485 52.059,307.863 51.600 C 308.135 51.270,308.507 51.000,308.689 51.000 C 308.888 51.000,308.974 50.927,308.906 50.815 C 308.830 50.692,308.905 50.667,309.132 50.739 C 309.384 50.819,309.501 50.759,309.579 50.513 C 309.648 50.297,309.891 50.140,310.267 50.069 C 310.587 50.009,310.811 49.923,310.766 49.877 C 310.619 49.731,311.157 49.308,311.343 49.423 C 311.442 49.484,311.627 49.395,311.756 49.225 C 311.884 49.055,311.993 48.992,311.997 49.083 C 312.002 49.175,312.076 49.137,312.163 49.000 C 312.250 48.862,312.399 48.741,312.494 48.729 C 312.589 48.718,312.746 48.699,312.843 48.688 C 312.940 48.676,312.973 48.592,312.917 48.500 C 312.860 48.408,312.901 48.333,313.007 48.333 C 313.367 48.333,314.331 47.798,314.239 47.648 C 314.156 47.514,314.390 47.430,314.708 47.480 C 314.777 47.491,314.833 47.417,314.833 47.316 C 314.833 47.214,314.946 47.174,315.083 47.227 C 315.256 47.293,315.333 47.216,315.333 46.977 C 315.333 46.688,315.404 46.648,315.764 46.739 C 316.025 46.804,316.155 46.783,316.095 46.685 C 316.040 46.596,316.258 46.428,316.581 46.312 C 316.903 46.195,317.167 46.042,317.167 45.971 C 317.167 45.900,317.400 45.721,317.685 45.574 C 317.970 45.426,318.154 45.386,318.094 45.483 C 318.034 45.580,318.212 45.530,318.491 45.372 C 318.770 45.213,318.998 45.027,318.999 44.958 C 319.000 44.890,319.142 44.833,319.316 44.833 C 319.489 44.833,319.674 44.721,319.727 44.583 C 319.780 44.446,319.938 44.333,320.078 44.333 C 320.218 44.333,320.334 44.240,320.336 44.125 C 320.338 43.986,320.392 44.000,320.500 44.167 C 320.595 44.314,320.663 44.336,320.664 44.220 C 320.667 44.024,321.290 43.733,321.554 43.804 C 321.630 43.825,321.644 43.765,321.586 43.671 C 321.525 43.572,321.655 43.500,321.897 43.500 C 322.126 43.500,322.359 43.426,322.415 43.335 C 322.475 43.239,322.392 43.210,322.217 43.264 C 321.933 43.353,321.933 43.348,322.210 43.170 C 322.371 43.067,322.578 43.028,322.669 43.085 C 322.761 43.141,322.881 43.071,322.936 42.927 C 322.991 42.784,323.107 42.667,323.194 42.667 C 323.282 42.667,323.311 42.735,323.260 42.818 C 323.063 43.136,323.814 42.783,324.324 42.318 C 324.618 42.049,324.936 41.877,325.031 41.936 C 325.126 41.995,325.252 41.966,325.310 41.872 C 325.369 41.778,325.604 41.675,325.833 41.642 C 326.063 41.610,326.325 41.491,326.417 41.378 C 326.508 41.265,326.733 41.151,326.917 41.123 C 327.100 41.096,327.345 41.014,327.461 40.942 C 327.577 40.870,327.877 40.774,328.128 40.729 C 328.378 40.684,328.608 40.579,328.637 40.495 C 328.667 40.412,328.947 40.296,329.261 40.237 C 329.574 40.178,329.789 40.063,329.739 39.982 C 329.688 39.900,329.764 39.833,329.907 39.833 C 330.050 39.833,330.167 39.771,330.167 39.694 C 330.167 39.618,330.260 39.544,330.375 39.529 C 331.247 39.420,332.167 39.050,332.167 38.810 C 332.167 38.735,332.394 38.700,332.672 38.732 C 333.026 38.773,333.225 38.703,333.334 38.498 C 333.430 38.319,333.783 38.162,334.245 38.093 C 334.660 38.030,335.000 37.909,335.000 37.823 C 335.000 37.737,335.056 37.676,335.125 37.686 C 335.593 37.760,335.904 37.653,335.667 37.500 C 335.472 37.374,335.518 37.338,335.875 37.336 C 336.127 37.334,336.333 37.269,336.333 37.190 C 336.333 37.111,336.521 37.082,336.750 37.126 C 337.001 37.174,337.167 37.129,337.167 37.012 C 337.167 36.906,337.260 36.835,337.375 36.854 C 337.739 36.915,338.833 36.636,338.833 36.481 C 338.833 36.400,339.063 36.333,339.343 36.333 C 339.624 36.333,339.816 36.273,339.770 36.200 C 339.725 36.126,339.908 36.081,340.177 36.100 C 340.446 36.118,340.667 36.066,340.667 35.983 C 340.667 35.901,340.821 35.833,341.010 35.833 C 341.211 35.833,341.307 35.760,341.243 35.656 C 341.183 35.558,341.234 35.497,341.358 35.520 C 341.482 35.544,341.846 35.497,342.167 35.417 C 342.488 35.337,342.889 35.292,343.060 35.316 C 343.230 35.341,343.329 35.294,343.279 35.214 C 343.229 35.133,343.341 34.971,343.528 34.854 C 343.783 34.695,343.837 34.693,343.743 34.845 C 343.649 34.997,343.741 35.018,344.100 34.929 C 344.366 34.863,344.608 34.739,344.639 34.654 C 344.669 34.569,344.946 34.500,345.254 34.500 C 345.562 34.500,345.860 34.425,345.917 34.333 C 345.973 34.242,346.188 34.167,346.395 34.167 C 346.601 34.167,346.915 34.057,347.093 33.922 C 347.271 33.787,347.618 33.675,347.865 33.672 C 348.112 33.669,348.362 33.589,348.421 33.493 C 348.480 33.398,348.665 33.363,348.833 33.417 C 349.001 33.470,349.188 33.434,349.247 33.337 C 349.307 33.241,349.427 33.205,349.514 33.258 C 349.600 33.312,349.896 33.243,350.172 33.106 C 350.447 32.968,350.629 32.926,350.576 33.011 C 350.524 33.097,350.560 33.167,350.657 33.167 C 350.754 33.167,350.833 33.096,350.833 33.010 C 350.833 32.841,352.206 32.578,352.750 32.642 C 353.026 32.675,353.040 32.652,352.833 32.510 C 352.607 32.354,353.168 32.228,353.708 32.314 C 353.777 32.324,353.833 32.250,353.833 32.147 C 353.833 32.043,353.980 32.000,354.167 32.048 C 354.350 32.096,354.500 32.067,354.500 31.984 C 354.500 31.901,354.631 31.834,354.792 31.836 C 355.041 31.838,355.047 31.862,354.833 32.000 C 354.520 32.203,354.739 32.217,355.127 32.019 C 356.002 31.575,356.954 31.371,358.333 31.335 C 358.556 31.329,358.556 31.310,358.333 31.167 C 358.117 31.027,358.121 31.005,358.361 31.003 C 358.514 31.001,358.677 31.094,358.723 31.208 C 358.790 31.375,358.810 31.375,358.820 31.208 C 358.827 31.094,358.968 31.000,359.133 31.000 C 359.298 31.000,359.526 30.907,359.640 30.793 C 359.776 30.658,359.888 30.645,359.965 30.755 C 360.033 30.851,360.334 30.878,360.667 30.817 C 360.988 30.759,361.144 30.701,361.014 30.689 C 360.884 30.677,360.826 30.618,360.885 30.560 C 360.944 30.501,361.109 30.550,361.253 30.669 C 361.451 30.833,361.561 30.839,361.707 30.693 C 361.813 30.587,362.095 30.500,362.333 30.500 C 362.572 30.500,362.838 30.433,362.925 30.350 C 363.106 30.180,364.290 30.001,365.195 30.007 C 365.531 30.010,365.848 29.944,365.899 29.861 C 365.951 29.778,366.459 29.700,367.029 29.687 C 367.599 29.674,368.113 29.586,368.172 29.492 C 368.235 29.390,368.551 29.364,368.956 29.429 C 369.531 29.521,369.647 29.490,369.715 29.227 C 369.786 28.952,369.797 28.950,369.814 29.208 C 369.836 29.543,370.017 29.583,370.286 29.314 C 370.388 29.212,370.886 29.122,371.392 29.115 C 371.898 29.108,372.298 29.032,372.281 28.947 C 372.264 28.861,372.356 28.753,372.485 28.706 C 372.653 28.645,372.688 28.705,372.606 28.917 C 372.519 29.144,372.542 29.173,372.705 29.039 C 372.821 28.942,373.360 28.838,373.903 28.807 C 374.445 28.776,374.914 28.675,374.944 28.583 C 375.018 28.357,372.558 28.271,372.420 28.495 M132.553 46.125 C 134.737 46.151,138.262 46.151,140.386 46.125 C 142.511 46.098,140.725 46.077,136.417 46.077 C 132.108 46.077,130.370 46.099,132.553 46.125 " stroke="none" fill="#a4acac" fill-rule="evenodd"></path><path id="path1" d="M377.458 28.282 C 377.054 28.387,377.092 28.667,377.510 28.667 C 377.699 28.667,377.811 28.598,377.759 28.514 C 377.707 28.430,377.759 28.324,377.874 28.277 C 378.130 28.174,377.859 28.177,377.458 28.282 M370.046 29.004 C 370.032 29.189,370.091 29.297,370.177 29.244 C 370.366 29.127,370.386 28.667,370.202 28.667 C 370.130 28.667,370.060 28.818,370.046 29.004 M372.087 28.927 C 371.766 29.169,371.768 29.175,372.161 29.115 C 372.384 29.081,372.595 28.966,372.630 28.860 C 372.718 28.597,372.485 28.626,372.087 28.927 M365.923 29.823 C 365.870 29.909,365.978 29.968,366.163 29.954 C 366.348 29.940,366.500 29.870,366.500 29.798 C 366.500 29.614,366.040 29.634,365.923 29.823 M356.458 30.339 C 356.682 30.428,356.985 30.428,357.208 30.339 C 357.515 30.215,357.446 30.188,356.833 30.188 C 356.221 30.188,356.152 30.215,356.458 30.339 M355.917 31.667 C 355.860 31.758,355.926 31.833,356.064 31.833 C 356.201 31.833,356.360 31.758,356.417 31.667 C 356.473 31.575,356.407 31.500,356.270 31.500 C 356.132 31.500,355.973 31.575,355.917 31.667 M336.333 37.171 C 336.333 37.248,336.127 37.335,335.875 37.364 C 335.574 37.399,335.502 37.451,335.667 37.518 C 335.804 37.573,336.177 37.530,336.494 37.421 C 337.013 37.244,337.034 37.215,336.702 37.128 C 336.499 37.075,336.333 37.094,336.333 37.171 M332.167 38.854 C 332.167 39.039,332.515 39.038,332.809 38.852 C 332.969 38.750,332.908 38.708,332.601 38.708 C 332.362 38.708,332.167 38.774,332.167 38.854 M315.708 41.416 C 315.399 41.767,315.456 41.864,315.833 41.628 C 316.017 41.513,316.167 41.363,316.167 41.293 C 316.167 41.095,315.937 41.156,315.708 41.416 M324.577 42.068 C 324.277 42.287,324.285 42.296,324.710 42.215 C 324.959 42.168,325.122 42.062,325.072 41.981 C 324.954 41.791,324.955 41.791,324.577 42.068 M322.191 43.148 C 322.031 43.250,322.091 43.292,322.396 43.292 C 322.633 43.292,322.787 43.226,322.737 43.146 C 322.625 42.964,322.480 42.965,322.191 43.148 M317.625 45.595 C 317.373 45.732,317.167 45.879,317.167 45.922 C 317.167 46.083,317.430 45.982,317.833 45.667 C 318.329 45.279,318.254 45.254,317.625 45.595 M304.672 53.621 C 304.454 53.867,304.460 53.884,304.727 53.782 C 304.892 53.718,305.059 53.667,305.097 53.667 C 305.135 53.667,305.167 53.592,305.167 53.500 C 305.167 53.255,304.951 53.308,304.672 53.621 M302.500 55.250 C 302.331 55.454,302.339 55.500,302.545 55.500 C 302.684 55.500,302.841 55.387,302.894 55.250 C 302.946 55.112,302.926 55.000,302.849 55.000 C 302.771 55.000,302.614 55.112,302.500 55.250 M301.743 55.678 C 301.590 55.925,301.734 56.028,302.059 55.903 C 302.209 55.846,302.290 55.731,302.239 55.649 C 302.114 55.447,301.877 55.461,301.743 55.678 M297.500 59.250 C 297.275 59.521,297.329 59.555,297.736 59.399 C 297.881 59.343,298.000 59.231,298.000 59.149 C 298.000 58.918,297.730 58.973,297.500 59.250 M295.450 61.011 C 295.193 61.263,295.056 61.515,295.145 61.570 C 295.295 61.662,296.112 60.708,295.977 60.600 C 295.944 60.574,295.707 60.759,295.450 61.011 M282.903 61.892 C 282.846 62.042,282.750 62.137,282.691 62.104 C 282.632 62.071,282.399 62.277,282.174 62.563 C 281.810 63.026,281.805 63.048,282.132 62.766 C 282.335 62.591,282.500 62.508,282.500 62.580 C 282.500 62.652,282.659 62.510,282.852 62.264 C 283.046 62.017,283.160 61.771,283.106 61.717 C 283.052 61.663,282.961 61.742,282.903 61.892 " stroke="none" fill="#a4a4ac" fill-rule="evenodd"></path><path id="path2" d="M176.706 40.979 C 176.730 41.105,176.646 41.246,176.518 41.292 C 176.387 41.340,176.333 41.302,176.394 41.204 C 176.460 41.097,176.371 41.065,176.161 41.120 C 175.930 41.180,175.759 41.440,175.628 41.928 C 175.523 42.323,175.375 42.609,175.300 42.563 C 175.225 42.517,175.054 42.589,174.918 42.724 C 174.783 42.860,174.578 43.002,174.461 43.041 C 174.294 43.098,174.298 43.171,174.479 43.390 C 174.640 43.585,174.649 43.667,174.511 43.667 C 174.402 43.667,174.365 43.750,174.428 43.851 C 174.504 43.975,174.426 43.999,174.189 43.924 C 173.912 43.836,173.857 43.868,173.936 44.074 C 174.013 44.273,173.965 44.309,173.741 44.224 C 173.547 44.149,173.484 44.173,173.559 44.293 C 173.621 44.394,173.596 44.524,173.503 44.582 C 173.410 44.639,173.333 44.840,173.333 45.028 C 173.333 45.266,173.256 45.339,173.077 45.271 C 172.931 45.215,172.780 45.279,172.726 45.419 C 172.674 45.555,172.527 45.667,172.399 45.667 C 171.989 45.667,172.150 46.156,172.750 46.739 C 173.158 47.136,173.300 47.393,173.222 47.597 C 173.146 47.795,173.172 47.850,173.305 47.768 C 173.423 47.694,173.500 47.753,173.500 47.917 C 173.500 48.065,173.577 48.139,173.671 48.081 C 173.765 48.023,173.831 48.037,173.818 48.113 C 173.748 48.515,173.858 48.853,174.040 48.792 C 174.350 48.689,174.681 49.101,174.555 49.432 C 174.479 49.629,174.506 49.683,174.638 49.601 C 174.755 49.529,174.833 49.584,174.833 49.740 C 174.833 49.883,174.908 50.000,175.000 50.000 C 175.092 50.000,175.155 50.056,175.140 50.125 C 175.092 50.355,175.366 50.833,175.500 50.750 C 175.625 50.673,175.918 51.448,175.861 51.708 C 175.846 51.777,175.909 51.833,176.002 51.833 C 176.095 51.833,176.320 52.077,176.502 52.375 C 176.683 52.673,176.837 52.842,176.843 52.750 C 176.853 52.609,177.071 53.051,177.194 53.460 C 177.215 53.528,177.367 53.729,177.532 53.906 C 177.698 54.084,177.833 54.290,177.833 54.365 C 177.833 54.439,177.965 54.501,178.125 54.503 C 178.374 54.505,178.380 54.529,178.167 54.667 C 177.965 54.797,177.988 54.829,178.292 54.831 C 178.743 54.834,178.753 54.895,178.377 55.335 C 178.094 55.665,177.922 55.673,171.242 55.663 C 164.718 55.653,163.730 55.699,163.917 56.000 C 163.961 56.072,163.881 56.177,163.738 56.231 C 163.596 56.286,163.526 56.407,163.583 56.499 C 163.640 56.591,163.601 56.667,163.496 56.667 C 163.391 56.667,163.339 56.760,163.380 56.875 C 163.507 57.227,163.160 57.758,162.985 57.481 C 162.870 57.301,162.838 57.298,162.836 57.468 C 162.834 57.588,162.759 57.641,162.669 57.585 C 162.576 57.527,162.545 57.590,162.597 57.726 C 162.654 57.875,162.564 58.010,162.367 58.073 C 162.165 58.137,162.051 58.314,162.064 58.546 C 162.078 58.813,161.933 58.983,161.542 59.155 C 161.244 59.286,161.000 59.492,161.000 59.613 C 161.000 59.734,160.925 59.833,160.833 59.833 C 160.742 59.833,160.667 59.906,160.667 59.995 C 160.667 60.098,164.502 60.160,171.200 60.164 C 178.296 60.169,181.768 60.228,181.840 60.344 C 181.899 60.440,182.053 60.495,182.182 60.467 C 182.311 60.439,182.398 60.510,182.375 60.625 C 182.352 60.740,182.443 60.833,182.577 60.833 C 182.865 60.833,183.208 61.398,183.036 61.588 C 182.970 61.661,183.008 61.668,183.119 61.604 C 183.247 61.530,183.445 61.733,183.664 62.161 C 183.852 62.531,184.080 62.833,184.170 62.833 C 184.260 62.833,184.333 62.955,184.333 63.104 C 184.333 63.318,184.382 63.334,184.570 63.178 C 184.764 63.017,184.798 63.056,184.760 63.400 C 184.735 63.629,184.760 63.802,184.815 63.784 C 185.001 63.722,185.605 64.434,185.538 64.636 C 185.496 64.763,185.575 64.794,185.763 64.722 C 185.949 64.651,186.015 64.675,185.945 64.788 C 185.742 65.116,186.344 65.167,190.430 65.167 C 193.937 65.167,194.500 65.132,194.500 64.917 C 194.500 64.779,194.379 64.667,194.232 64.667 C 194.070 64.667,194.000 64.574,194.055 64.430 C 194.105 64.301,194.038 64.153,193.906 64.102 C 193.774 64.052,193.667 63.896,193.667 63.755 C 193.667 63.615,193.587 63.500,193.490 63.500 C 193.393 63.500,193.359 63.574,193.415 63.665 C 193.474 63.759,193.407 63.787,193.259 63.730 C 192.981 63.624,192.902 63.333,193.151 63.333 C 193.234 63.333,193.216 63.152,193.111 62.929 C 193.002 62.697,192.874 62.600,192.812 62.701 C 192.682 62.912,192.332 62.727,192.336 62.448 C 192.337 62.329,192.403 62.350,192.500 62.500 C 192.638 62.714,192.662 62.708,192.664 62.458 C 192.666 62.188,192.472 62.085,192.097 62.156 C 192.013 62.172,192.049 62.058,192.179 61.902 C 192.391 61.646,192.377 61.630,192.034 61.739 C 191.691 61.848,191.664 61.818,191.760 61.437 C 191.849 61.081,191.798 60.997,191.433 60.906 C 191.008 60.799,190.937 60.680,190.986 60.156 C 191.000 60.012,190.845 59.750,190.643 59.572 C 190.441 59.395,190.331 59.344,190.398 59.458 C 190.465 59.574,190.436 59.667,190.333 59.667 C 190.230 59.667,190.162 59.535,190.182 59.375 C 190.245 58.861,189.987 58.482,189.647 58.590 C 189.407 58.666,189.333 58.606,189.333 58.335 C 189.333 58.140,189.407 58.026,189.498 58.082 C 189.597 58.143,189.618 58.067,189.551 57.892 C 189.482 57.713,189.413 57.677,189.372 57.800 C 189.270 58.107,189.034 58.037,189.060 57.708 C 189.075 57.522,188.983 57.433,188.806 57.462 C 188.603 57.496,188.540 57.402,188.572 57.110 C 188.606 56.801,188.550 56.728,188.322 56.788 C 188.134 56.837,187.954 56.724,187.820 56.474 C 187.628 56.114,187.635 56.102,187.899 56.320 C 188.164 56.538,188.170 56.523,187.982 56.111 C 187.864 55.851,187.645 55.667,187.455 55.667 C 187.236 55.667,187.162 55.586,187.227 55.417 C 187.280 55.279,187.238 55.167,187.134 55.167 C 187.030 55.167,186.994 55.117,187.054 55.057 C 187.228 54.883,186.834 54.510,186.579 54.608 C 186.414 54.671,186.359 54.565,186.383 54.223 C 186.406 53.901,186.345 53.765,186.191 53.798 C 185.943 53.850,185.500 53.542,185.500 53.318 C 185.500 53.241,185.631 53.219,185.792 53.271 C 186.037 53.350,186.043 53.337,185.833 53.188 C 185.696 53.091,185.574 52.934,185.563 52.839 C 185.551 52.744,185.532 52.582,185.521 52.480 C 185.506 52.342,185.441 52.342,185.276 52.478 C 185.052 52.664,184.833 52.574,184.833 52.296 C 184.833 52.214,184.907 52.193,184.998 52.249 C 185.092 52.307,185.121 52.241,185.064 52.093 C 185.010 51.951,184.898 51.877,184.816 51.927 C 184.734 51.978,184.667 51.865,184.667 51.677 C 184.667 51.488,184.587 51.333,184.490 51.333 C 184.393 51.333,184.370 51.427,184.439 51.542 C 184.520 51.678,184.464 51.669,184.276 51.516 C 184.117 51.388,184.009 51.125,184.036 50.933 C 184.065 50.716,184.001 50.600,183.866 50.628 C 183.747 50.653,183.535 50.559,183.396 50.420 C 183.170 50.193,183.175 50.165,183.446 50.154 C 183.621 50.146,183.662 50.105,183.542 50.056 C 183.427 50.010,183.333 49.866,183.333 49.736 C 183.333 49.606,183.254 49.500,183.157 49.500 C 183.060 49.500,183.026 49.574,183.082 49.665 C 183.142 49.761,183.071 49.786,182.913 49.726 C 182.721 49.652,182.672 49.503,182.744 49.215 C 182.829 48.874,182.764 48.778,182.336 48.616 C 182.044 48.506,181.838 48.315,181.855 48.170 C 181.901 47.780,181.657 47.333,181.399 47.333 C 181.271 47.333,181.167 47.183,181.167 47.000 C 181.167 46.809,181.056 46.667,180.907 46.667 C 180.764 46.667,180.693 46.592,180.750 46.500 C 180.807 46.408,180.763 46.333,180.653 46.333 C 180.432 46.333,180.012 45.845,180.008 45.583 C 180.006 45.492,180.078 45.529,180.167 45.667 C 180.256 45.804,180.328 45.842,180.328 45.750 C 180.328 45.436,180.037 45.124,179.852 45.238 C 179.522 45.442,179.317 45.175,179.517 44.802 C 179.723 44.417,179.438 44.101,179.023 44.254 C 178.879 44.307,178.829 44.251,178.887 44.101 C 178.993 43.825,178.452 43.273,178.257 43.458 C 178.185 43.527,178.174 43.423,178.234 43.228 C 178.308 42.987,178.261 42.841,178.087 42.774 C 177.946 42.720,177.850 42.584,177.873 42.471 C 177.897 42.358,177.804 42.262,177.667 42.258 C 177.530 42.253,177.417 42.136,177.417 41.997 C 177.417 41.858,177.247 41.521,177.039 41.247 C 176.832 40.974,176.682 40.853,176.706 40.979 M83.467 41.836 C 83.439 41.910,83.079 41.999,82.667 42.033 C 82.238 42.068,81.908 42.181,81.896 42.297 C 81.853 42.713,81.825 42.745,81.690 42.532 C 81.600 42.391,81.397 42.353,81.110 42.425 C 80.868 42.486,80.710 42.603,80.761 42.684 C 80.812 42.766,80.703 42.833,80.520 42.833 C 80.336 42.833,80.140 42.908,80.083 43.000 C 80.027 43.092,80.065 43.167,80.169 43.167 C 80.281 43.167,80.257 43.267,80.107 43.417 C 79.970 43.554,79.777 43.667,79.679 43.667 C 79.580 43.667,79.500 43.854,79.500 44.083 C 79.500 44.313,79.347 44.653,79.160 44.840 C 78.889 45.111,78.843 45.300,78.934 45.783 C 79.032 46.308,79.010 46.373,78.763 46.278 C 78.477 46.168,78.483 46.307,78.801 47.152 C 78.850 47.282,78.821 47.346,78.737 47.294 C 78.646 47.239,78.582 48.087,78.580 49.354 C 78.577 50.870,78.631 51.485,78.762 51.435 C 78.879 51.390,78.919 51.513,78.872 51.763 C 78.822 52.024,78.886 52.197,79.056 52.263 C 79.271 52.345,79.282 52.423,79.117 52.703 C 78.960 52.971,78.961 53.060,79.125 53.119 C 79.240 53.160,79.333 53.262,79.333 53.345 C 79.333 54.112,81.995 55.367,83.302 55.216 C 83.679 55.173,84.012 55.217,84.075 55.320 C 84.153 55.446,87.284 55.501,94.468 55.503 C 104.407 55.505,105.361 55.550,105.079 56.007 C 104.994 56.145,105.016 56.177,105.141 56.099 C 105.282 56.012,105.333 56.534,105.333 58.073 C 105.333 59.358,105.269 60.167,105.167 60.167 C 105.075 60.167,104.999 60.335,104.997 60.542 C 104.996 60.785,104.949 60.845,104.865 60.712 C 104.676 60.415,78.000 60.323,78.000 60.620 C 78.000 60.736,77.888 60.780,77.737 60.722 C 77.415 60.598,77.466 61.158,77.801 61.422 C 77.965 61.550,77.977 61.706,77.850 62.039 C 77.711 62.404,77.724 62.467,77.924 62.391 C 78.057 62.340,78.167 62.374,78.167 62.468 C 78.167 62.562,78.073 62.674,77.958 62.716 C 77.841 62.760,77.951 62.873,78.208 62.976 C 78.460 63.076,78.667 63.202,78.667 63.256 C 78.667 63.309,78.580 63.299,78.474 63.234 C 78.355 63.160,78.327 63.188,78.401 63.308 C 78.466 63.413,78.623 63.500,78.749 63.500 C 78.875 63.500,79.025 63.650,79.083 63.833 C 79.180 64.139,79.397 64.232,79.958 64.211 C 80.073 64.207,80.167 64.316,80.167 64.453 C 80.167 64.606,80.263 64.665,80.417 64.606 C 80.554 64.554,80.667 64.564,80.667 64.630 C 80.667 64.696,81.021 64.773,81.454 64.801 C 81.887 64.829,82.289 64.929,82.348 65.023 C 82.409 65.122,82.502 65.068,82.569 64.894 C 82.667 64.638,82.708 64.630,82.836 64.838 C 83.080 65.233,105.318 65.293,105.917 64.901 C 106.308 64.645,106.416 64.691,106.341 65.083 C 106.324 65.175,106.405 65.156,106.521 65.042 C 106.638 64.927,107.018 64.833,107.367 64.833 C 107.719 64.833,108.000 64.751,108.000 64.649 C 108.000 64.547,108.106 64.505,108.236 64.555 C 108.591 64.691,109.423 64.408,109.368 64.170 C 109.335 64.025,109.448 63.993,109.733 64.064 C 109.960 64.121,110.192 64.093,110.248 64.003 C 110.307 63.907,110.241 63.879,110.092 63.936 C 109.594 64.127,109.839 63.716,110.404 63.412 C 111.038 63.070,111.396 62.460,111.244 61.981 C 111.189 61.808,111.218 61.667,111.309 61.667 C 111.415 61.667,111.440 60.649,111.378 58.809 C 111.288 56.157,111.303 55.934,111.589 55.725 C 111.758 55.601,111.816 55.500,111.717 55.500 C 111.541 55.500,111.370 54.783,111.293 53.723 C 111.272 53.433,111.206 53.226,111.146 53.263 C 111.087 53.299,110.999 53.180,110.951 52.997 C 110.889 52.761,110.780 52.698,110.571 52.778 C 110.371 52.854,110.317 52.828,110.399 52.695 C 110.465 52.588,110.440 52.500,110.343 52.500 C 110.246 52.500,110.167 52.421,110.167 52.323 C 110.167 52.226,110.260 52.195,110.375 52.253 C 110.490 52.311,110.418 52.212,110.215 52.033 C 110.013 51.854,109.894 51.661,109.952 51.604 C 110.009 51.547,109.933 51.500,109.783 51.500 C 109.609 51.500,109.545 51.591,109.606 51.750 C 109.659 51.887,109.619 52.000,109.518 52.000 C 109.416 52.000,109.333 51.883,109.333 51.740 C 109.333 51.597,109.258 51.527,109.167 51.583 C 109.075 51.640,109.000 51.602,109.000 51.500 C 109.000 51.398,108.930 51.357,108.845 51.410 C 108.760 51.462,108.640 51.426,108.580 51.328 C 108.503 51.204,108.402 51.207,108.242 51.340 C 107.966 51.569,107.671 51.416,107.654 51.032 C 107.645 50.847,107.610 50.824,107.554 50.965 C 107.491 51.123,107.409 51.132,107.249 50.999 C 107.097 50.873,106.996 50.871,106.922 50.992 C 106.862 51.088,106.739 51.167,106.647 51.167 C 106.555 51.167,106.527 51.092,106.583 51.000 C 106.643 50.903,106.477 50.833,106.186 50.833 C 105.911 50.833,105.640 50.908,105.583 51.000 C 105.527 51.092,105.222 51.167,104.907 51.167 C 104.591 51.167,104.333 51.092,104.333 51.000 C 104.333 50.891,101.118 50.833,95.020 50.833 C 86.946 50.833,85.680 50.800,85.500 50.583 C 85.386 50.446,85.189 50.333,85.063 50.333 C 84.937 50.333,84.833 50.258,84.833 50.167 C 84.833 50.075,84.908 50.000,85.000 50.000 C 85.101 50.000,85.167 49.281,85.167 48.177 C 85.167 47.121,85.238 46.309,85.336 46.248 C 85.429 46.191,85.461 46.072,85.407 45.984 C 85.353 45.897,85.370 45.836,85.446 45.849 C 85.522 45.862,91.134 45.864,97.918 45.853 L 110.252 45.833 110.472 45.337 C 110.592 45.064,110.648 44.771,110.595 44.685 C 110.541 44.599,110.592 44.484,110.707 44.429 C 110.822 44.374,110.748 44.361,110.542 44.399 C 110.238 44.456,110.167 44.393,110.167 44.072 C 110.167 43.659,109.475 43.060,109.196 43.232 C 108.994 43.357,108.464 42.760,108.625 42.588 C 108.694 42.514,108.469 42.496,108.125 42.549 C 107.757 42.606,107.500 42.578,107.500 42.480 C 107.500 42.388,107.560 42.351,107.633 42.396 C 107.706 42.441,107.875 42.409,108.008 42.325 C 108.198 42.204,108.173 42.171,107.889 42.169 C 107.690 42.168,107.390 42.122,107.222 42.068 C 106.968 41.985,106.959 41.999,107.167 42.148 C 107.304 42.247,107.379 42.335,107.333 42.344 C 107.287 42.352,107.119 42.384,106.958 42.415 C 106.792 42.447,106.667 42.369,106.667 42.235 C 106.667 42.106,106.517 42.000,106.333 42.000 C 106.150 42.000,106.000 41.925,106.000 41.833 C 106.000 41.559,105.470 41.645,105.226 41.958 C 105.047 42.189,105.018 42.195,105.090 41.986 C 105.183 41.716,104.640 41.638,104.392 41.885 C 104.329 41.948,99.959 41.982,94.681 41.960 L 85.083 41.921 94.667 41.830 L 104.250 41.738 93.883 41.719 C 88.182 41.709,83.494 41.761,83.467 41.836 M121.833 41.833 C 121.833 41.925,121.777 41.991,121.708 41.980 C 121.376 41.928,121.157 42.017,121.250 42.167 C 121.307 42.258,121.269 42.333,121.167 42.333 C 121.064 42.333,121.026 42.407,121.082 42.498 C 121.138 42.589,121.086 42.625,120.967 42.580 C 120.790 42.512,120.757 44.571,120.788 53.790 L 120.826 65.083 124.496 65.128 C 127.037 65.159,128.167 65.118,128.167 64.993 C 128.167 64.895,128.110 64.849,128.042 64.891 C 127.973 64.934,127.938 63.168,127.964 60.967 C 127.997 58.236,127.953 56.895,127.828 56.744 C 127.377 56.200,128.193 56.157,138.748 56.164 C 147.038 56.170,149.167 56.128,149.169 55.961 C 149.171 55.816,149.210 55.807,149.294 55.933 C 149.450 56.166,149.992 56.169,149.949 55.936 C 149.930 55.834,150.151 55.782,150.477 55.812 C 150.848 55.845,151.000 55.801,150.926 55.681 C 150.854 55.566,150.999 55.500,151.323 55.500 C 151.604 55.500,151.833 55.421,151.833 55.323 C 151.833 55.226,151.900 55.188,151.983 55.239 C 152.065 55.290,152.177 55.215,152.231 55.072 C 152.286 54.929,152.396 54.853,152.477 54.902 C 152.715 55.049,153.218 54.374,153.100 54.066 C 153.014 53.842,153.039 53.825,153.223 53.978 C 153.411 54.134,153.446 54.091,153.409 53.752 C 153.383 53.522,153.437 53.333,153.527 53.333 C 153.618 53.333,153.670 53.090,153.643 52.792 C 153.608 52.409,153.659 52.264,153.817 52.298 C 153.972 52.332,154.010 52.231,153.944 51.965 C 153.815 51.453,153.777 46.059,153.901 45.859 C 153.954 45.773,153.886 45.659,153.749 45.606 C 153.425 45.482,153.427 45.167,153.751 45.167 C 153.925 45.167,153.852 45.009,153.519 44.660 C 153.240 44.368,153.066 44.032,153.109 43.868 C 153.195 43.539,152.559 42.777,152.322 42.924 C 152.235 42.977,152.119 42.902,152.063 42.756 C 151.979 42.538,151.915 42.529,151.699 42.704 C 151.479 42.883,151.454 42.873,151.541 42.640 C 151.616 42.440,151.522 42.329,151.197 42.237 C 150.545 42.052,150.430 42.053,150.294 42.244 C 150.218 42.352,150.171 42.331,150.169 42.188 C 150.167 42.004,150.118 41.999,149.917 42.167 C 149.744 42.310,149.667 42.316,149.667 42.187 C 149.667 42.084,149.517 42.000,149.333 42.000 C 149.150 42.000,149.000 41.934,149.000 41.853 C 149.000 41.689,148.055 41.723,147.885 41.892 C 147.826 41.952,141.959 41.982,134.847 41.960 L 121.917 41.920 134.917 41.833 L 147.917 41.747 134.875 41.707 C 126.265 41.680,121.833 41.723,121.833 41.833 M203.333 41.833 C 203.333 41.925,203.216 42.000,203.073 42.000 C 202.931 42.000,202.860 42.075,202.917 42.167 C 202.973 42.258,202.945 42.333,202.853 42.333 C 202.761 42.333,202.640 42.258,202.583 42.167 C 202.527 42.075,202.335 42.000,202.157 42.000 C 201.979 42.000,201.833 42.075,201.833 42.167 C 201.833 42.258,201.777 42.324,201.708 42.314 C 201.304 42.250,201.000 42.366,201.000 42.583 C 201.000 42.721,200.921 42.833,200.823 42.833 C 200.726 42.833,200.693 42.758,200.750 42.667 C 200.912 42.404,200.564 42.472,200.335 42.748 C 200.222 42.885,200.062 42.955,199.981 42.905 C 199.900 42.855,199.833 42.923,199.833 43.056 C 199.833 43.189,199.721 43.341,199.583 43.394 C 199.446 43.446,199.333 43.609,199.333 43.755 C 199.333 43.919,199.255 43.974,199.125 43.900 C 199.010 43.834,198.972 43.841,199.040 43.916 C 199.108 43.991,199.071 44.168,198.957 44.308 C 198.812 44.487,198.809 44.529,198.947 44.446 C 199.055 44.381,199.191 44.404,199.248 44.497 C 199.306 44.590,199.229 44.667,199.078 44.667 C 198.854 44.667,198.821 44.787,198.895 45.322 C 198.946 45.682,198.916 46.001,198.830 46.030 C 198.647 46.092,198.589 61.151,198.770 61.313 C 198.834 61.370,198.825 61.304,198.750 61.167 C 198.669 61.018,198.675 60.973,198.765 61.056 C 198.848 61.132,198.919 61.519,198.921 61.915 C 198.925 62.470,199.021 62.720,199.338 62.998 C 199.565 63.196,199.656 63.311,199.542 63.253 C 199.257 63.108,199.280 63.303,199.583 63.607 C 199.776 63.800,199.834 63.807,199.836 63.637 C 199.838 63.470,199.875 63.475,199.992 63.659 C 200.076 63.792,200.100 63.973,200.045 64.062 C 199.988 64.154,200.062 64.179,200.217 64.119 C 200.367 64.062,200.537 64.091,200.595 64.185 C 200.653 64.279,200.811 64.314,200.946 64.262 C 201.081 64.210,201.297 64.273,201.426 64.402 C 201.555 64.531,201.812 64.597,201.997 64.549 C 202.186 64.500,202.333 64.543,202.333 64.647 C 202.333 64.761,202.684 64.833,203.240 64.833 C 203.739 64.833,204.194 64.909,204.251 65.002 C 204.320 65.114,208.152 65.169,215.518 65.164 C 221.783 65.161,226.641 65.094,226.591 65.013 C 226.542 64.933,226.620 64.823,226.765 64.767 C 227.165 64.614,227.212 64.642,227.091 64.958 C 227.002 65.192,227.022 65.209,227.190 65.042 C 227.306 64.927,227.595 64.833,227.833 64.833 C 228.072 64.833,228.368 64.740,228.491 64.625 C 228.634 64.492,228.676 64.487,228.607 64.610 C 228.540 64.731,228.609 64.786,228.791 64.757 C 228.952 64.732,229.072 64.582,229.058 64.425 C 229.038 64.204,229.122 64.161,229.423 64.237 C 229.637 64.290,229.863 64.254,229.923 64.156 C 229.984 64.058,230.143 64.019,230.276 64.070 C 230.409 64.121,230.481 64.104,230.437 64.033 C 230.393 63.962,230.576 63.756,230.845 63.577 C 231.142 63.377,231.333 63.104,231.333 62.875 C 231.333 62.669,231.395 62.500,231.470 62.500 C 231.545 62.500,231.616 62.050,231.629 61.500 L 231.651 60.500 219.253 60.500 C 207.073 60.500,205.806 60.449,206.101 59.972 C 206.178 59.847,206.136 59.809,205.986 59.867 C 205.716 59.971,205.787 47.014,206.059 46.458 C 206.194 46.184,206.984 46.167,219.134 46.167 C 228.666 46.167,232.018 46.118,231.880 45.980 C 231.778 45.878,231.727 45.522,231.767 45.189 C 231.823 44.718,231.804 44.658,231.681 44.917 C 231.539 45.216,231.522 45.203,231.512 44.782 C 231.505 44.513,231.570 44.357,231.665 44.415 C 231.758 44.473,231.788 44.408,231.732 44.264 C 231.679 44.125,231.586 44.017,231.526 44.025 C 231.179 44.071,230.825 43.981,230.897 43.865 C 230.943 43.791,230.796 43.592,230.570 43.423 C 230.294 43.216,230.192 43.015,230.258 42.808 C 230.334 42.568,230.269 42.500,229.961 42.500 C 229.744 42.500,229.472 42.406,229.357 42.292 C 229.188 42.125,229.170 42.144,229.264 42.392 C 229.357 42.635,229.315 42.687,229.066 42.636 C 228.891 42.600,228.760 42.443,228.773 42.285 C 228.798 41.975,228.259 41.882,228.083 42.167 C 228.027 42.258,227.905 42.333,227.814 42.333 C 227.722 42.333,227.693 42.258,227.750 42.167 C 227.807 42.075,227.699 42.000,227.510 42.000 C 227.321 42.000,227.167 41.925,227.167 41.833 C 227.167 41.567,226.807 41.641,226.560 41.958 C 226.351 42.226,226.341 42.227,226.432 41.964 C 226.525 41.697,225.833 41.679,215.333 41.678 C 204.826 41.678,204.142 41.696,204.235 41.964 C 204.326 42.227,204.316 42.227,204.107 41.958 C 203.863 41.645,203.333 41.559,203.333 41.833 M241.612 41.777 C 241.472 41.916,241.463 45.876,241.601 46.236 C 241.692 46.474,243.235 46.500,257.348 46.500 L 272.994 46.500 273.087 46.125 C 273.138 45.919,273.158 44.850,273.132 43.750 L 273.083 41.750 257.404 41.707 C 248.780 41.684,241.674 41.715,241.612 41.777 M282.600 41.900 C 282.656 42.047,282.587 42.124,282.412 42.108 C 282.208 42.090,282.119 42.247,282.075 42.708 C 282.020 43.289,282.112 43.418,282.536 43.355 C 282.601 43.345,282.612 43.450,282.559 43.587 C 282.490 43.765,282.540 43.808,282.731 43.734 C 282.909 43.666,283.000 43.721,283.000 43.897 C 283.000 44.073,283.126 44.149,283.375 44.123 C 283.612 44.098,283.733 44.164,283.704 44.304 C 283.679 44.425,283.735 44.477,283.829 44.419 C 283.923 44.361,284.000 44.401,284.000 44.508 C 284.000 44.617,284.116 44.658,284.264 44.601 C 284.452 44.529,284.584 44.645,284.718 45.000 C 284.821 45.275,284.993 45.500,285.099 45.500 C 285.206 45.500,285.382 45.608,285.491 45.739 C 285.600 45.871,285.910 46.027,286.180 46.086 C 286.449 46.145,286.627 46.263,286.575 46.347 C 286.523 46.431,286.597 46.500,286.740 46.500 C 286.883 46.500,287.000 46.622,287.000 46.770 C 287.000 46.985,287.049 47.000,287.237 46.844 C 287.431 46.683,287.458 46.708,287.386 46.983 C 287.319 47.238,287.399 47.343,287.720 47.424 C 287.953 47.482,288.183 47.636,288.233 47.765 C 288.282 47.894,288.459 48.000,288.625 48.000 C 288.791 48.000,289.030 48.143,289.156 48.318 C 289.282 48.493,289.486 48.598,289.609 48.550 C 289.732 48.503,289.833 48.542,289.833 48.637 C 289.833 48.731,289.964 48.834,290.125 48.865 C 290.285 48.896,290.416 49.070,290.416 49.252 C 290.417 49.438,290.529 49.585,290.674 49.586 C 290.948 49.589,291.232 49.797,292.006 50.561 C 292.285 50.837,292.595 50.999,292.737 50.945 C 292.888 50.887,293.023 50.975,293.086 51.175 C 293.219 51.594,293.584 51.590,293.880 51.168 C 294.009 50.985,294.158 50.880,294.212 50.934 C 294.267 50.989,294.478 50.879,294.681 50.689 C 294.884 50.500,295.116 50.385,295.196 50.435 C 295.276 50.484,295.321 50.428,295.296 50.310 C 295.267 50.177,295.428 50.091,295.718 50.084 C 295.975 50.077,296.238 49.994,296.301 49.899 C 296.365 49.804,296.548 49.677,296.708 49.618 C 296.869 49.559,297.000 49.388,297.000 49.237 C 297.000 49.065,297.091 48.999,297.246 49.059 C 297.518 49.163,298.584 48.769,298.748 48.503 C 298.806 48.409,298.987 48.333,299.151 48.333 C 299.314 48.333,299.588 48.179,299.759 47.990 C 299.935 47.795,300.200 47.680,300.368 47.724 C 300.704 47.812,300.781 47.574,300.458 47.444 C 300.292 47.376,300.292 47.357,300.458 47.346 C 300.573 47.339,300.667 47.254,300.667 47.157 C 300.667 47.060,300.597 47.023,300.512 47.076 C 300.426 47.129,300.304 47.088,300.241 46.985 C 300.157 46.850,300.090 46.855,299.997 47.004 C 299.907 47.151,299.838 47.112,299.762 46.870 C 299.654 46.531,298.838 45.876,298.828 46.121 C 298.825 46.192,298.747 46.119,298.653 45.958 C 298.560 45.798,298.337 45.667,298.158 45.667 C 297.980 45.667,297.852 45.573,297.875 45.458 C 297.898 45.344,297.783 45.261,297.619 45.274 C 297.368 45.294,297.355 45.257,297.536 45.035 C 297.718 44.810,297.707 44.787,297.458 44.880 C 297.281 44.947,297.166 44.910,297.164 44.786 C 297.162 44.630,297.133 44.629,297.035 44.783 C 296.868 45.046,296.625 44.861,296.367 44.273 C 296.209 43.914,296.074 43.819,295.819 43.885 C 295.546 43.957,295.518 43.929,295.672 43.744 C 295.826 43.557,295.792 43.527,295.492 43.585 C 295.288 43.624,295.167 43.611,295.222 43.556 C 295.277 43.501,295.120 43.297,294.873 43.103 C 294.627 42.909,294.411 42.788,294.395 42.833 C 294.379 42.879,294.186 42.723,293.967 42.487 C 293.738 42.240,293.409 42.069,293.194 42.084 C 292.942 42.103,292.847 42.039,292.904 41.889 C 292.974 41.706,292.053 41.667,287.750 41.667 C 283.327 41.667,282.524 41.703,282.600 41.900 M220.458 41.958 C 217.640 41.984,213.027 41.984,210.208 41.958 C 207.390 41.933,209.696 41.912,215.333 41.912 C 220.971 41.912,223.277 41.933,220.458 41.958 M265.208 41.958 C 260.877 41.983,253.790 41.983,249.458 41.958 C 245.127 41.934,248.671 41.913,257.333 41.913 C 265.996 41.913,269.540 41.934,265.208 41.958 M145.199 46.147 C 146.111 46.299,146.495 46.567,146.513 47.062 C 146.520 47.257,146.564 47.323,146.610 47.208 C 146.831 46.663,146.912 47.146,146.863 48.705 C 146.834 49.644,146.729 50.508,146.631 50.626 C 146.495 50.790,146.518 50.816,146.728 50.735 C 147.185 50.560,146.874 51.095,146.391 51.315 C 146.149 51.425,146.004 51.602,146.052 51.728 C 146.112 51.884,146.019 51.926,145.734 51.871 C 145.513 51.829,145.216 51.890,145.075 52.007 C 144.881 52.168,144.772 52.172,144.626 52.026 C 144.486 51.886,142.316 51.833,136.622 51.833 C 128.758 51.833,128.167 51.791,128.167 51.234 C 128.167 51.095,128.110 51.015,128.042 51.058 C 127.973 51.100,127.931 50.080,127.949 48.792 C 127.972 47.072,128.039 46.411,128.199 46.310 C 128.319 46.234,128.342 46.169,128.250 46.167 C 128.158 46.164,128.170 46.106,128.276 46.039 C 128.529 45.878,144.186 45.978,145.199 46.147 M241.503 57.333 L 241.494 65.167 257.164 65.167 L 272.833 65.167 272.833 63.250 L 272.833 61.333 261.083 61.333 C 253.414 61.333,249.333 61.276,249.333 61.168 C 249.333 61.060,253.403 60.986,260.958 60.957 L 272.583 60.911 260.783 60.914 C 249.432 60.917,248.986 60.905,249.063 60.612 C 249.112 60.423,249.068 60.336,248.946 60.382 C 248.799 60.439,248.762 59.675,248.799 57.321 C 248.845 54.307,248.861 54.180,249.196 54.074 C 249.437 53.998,249.482 53.925,249.341 53.838 C 248.881 53.553,249.960 53.500,256.170 53.500 L 262.647 53.500 262.699 51.500 L 262.750 49.499 252.131 49.500 L 241.512 49.500 241.503 57.333 M307.861 53.351 C 307.700 53.608,307.589 53.656,307.457 53.524 C 307.207 53.273,306.821 53.606,306.955 53.956 C 307.022 54.132,306.991 54.181,306.862 54.101 C 306.754 54.035,306.667 54.069,306.667 54.176 C 306.667 54.289,306.528 54.336,306.339 54.287 C 306.107 54.226,305.979 54.305,305.900 54.559 C 305.762 55.001,305.463 55.210,305.314 54.968 C 305.234 54.840,305.136 54.844,304.976 54.983 C 304.852 55.090,304.600 55.294,304.417 55.435 C 304.233 55.576,304.184 55.639,304.308 55.576 C 304.464 55.495,304.514 55.555,304.471 55.772 C 304.436 55.950,304.269 56.084,304.080 56.085 C 303.599 56.087,303.018 56.520,303.124 56.797 C 303.174 56.927,303.111 57.100,302.983 57.181 C 302.623 57.409,302.500 57.361,302.621 57.042 C 302.726 56.764,302.717 56.764,302.438 57.040 C 302.277 57.200,302.192 57.406,302.249 57.499 C 302.306 57.591,302.274 57.667,302.177 57.667 C 302.079 57.667,302.000 57.737,302.000 57.824 C 302.000 57.910,302.147 57.953,302.326 57.918 C 302.536 57.878,302.687 57.969,302.754 58.178 C 302.810 58.355,302.908 58.500,302.971 58.500 C 303.035 58.500,303.292 58.691,303.543 58.923 C 303.795 59.156,304.000 59.297,304.000 59.236 C 304.000 59.176,304.101 59.209,304.224 59.311 C 304.347 59.414,304.497 59.448,304.557 59.387 C 304.617 59.327,304.667 59.411,304.667 59.573 C 304.667 59.761,304.754 59.836,304.904 59.778 C 305.177 59.673,305.560 60.050,305.374 60.240 C 305.306 60.309,305.400 60.347,305.583 60.324 C 306.140 60.254,306.473 60.485,306.372 60.870 C 306.308 61.115,306.341 61.182,306.483 61.094 C 306.601 61.021,306.810 61.114,306.987 61.318 C 307.153 61.510,307.374 61.667,307.478 61.667 C 307.582 61.667,307.667 61.733,307.667 61.814 C 307.667 61.895,307.863 62.091,308.104 62.248 C 308.344 62.406,308.490 62.453,308.429 62.353 C 308.359 62.240,308.411 62.207,308.564 62.266 C 308.707 62.321,308.770 62.471,308.713 62.620 C 308.631 62.832,308.671 62.847,308.928 62.704 C 309.193 62.555,309.274 62.603,309.447 63.016 C 309.560 63.285,309.712 63.495,309.785 63.483 C 310.120 63.427,310.344 63.515,310.250 63.667 C 310.193 63.758,310.253 63.833,310.383 63.833 C 310.514 63.833,310.759 64.018,310.929 64.244 C 311.124 64.505,311.279 64.588,311.351 64.472 C 311.422 64.356,311.536 64.422,311.657 64.649 C 311.763 64.847,311.916 64.969,311.997 64.919 C 312.078 64.869,312.191 64.904,312.248 64.997 C 312.426 65.285,322.667 65.225,322.667 64.936 C 322.667 64.809,322.811 64.668,322.988 64.622 C 323.192 64.568,323.288 64.424,323.251 64.227 C 323.219 64.056,323.186 63.851,323.179 63.771 C 323.172 63.691,323.040 63.729,322.885 63.855 C 322.640 64.054,322.618 64.047,322.710 63.800 C 322.785 63.600,322.747 63.544,322.581 63.607 C 322.417 63.670,322.366 63.597,322.411 63.362 C 322.487 62.970,322.012 62.713,321.808 63.036 C 321.708 63.193,321.671 63.173,321.669 62.958 C 321.668 62.798,321.594 62.667,321.505 62.667 C 321.416 62.667,321.390 62.546,321.447 62.397 C 321.530 62.180,321.477 62.151,321.171 62.249 C 320.912 62.331,320.828 62.311,320.906 62.185 C 320.969 62.082,320.912 62.000,320.778 62.000 C 320.645 62.000,320.489 61.879,320.432 61.731 C 320.363 61.549,320.195 61.488,319.915 61.541 C 319.687 61.585,319.500 61.556,319.500 61.477 C 319.500 61.170,319.444 61.076,319.137 60.860 C 318.961 60.737,318.706 60.680,318.569 60.732 C 318.425 60.788,318.334 60.741,318.353 60.622 C 318.404 60.304,318.149 59.824,317.984 59.927 C 317.809 60.035,317.250 59.750,317.250 59.553 C 317.250 59.478,317.194 59.435,317.125 59.458 C 317.056 59.481,317.000 59.375,317.000 59.222 C 317.000 59.069,316.955 58.990,316.899 59.046 C 316.843 59.101,316.642 59.001,316.451 58.823 C 316.086 58.483,315.741 58.382,315.917 58.667 C 315.973 58.758,315.943 58.833,315.849 58.833 C 315.755 58.833,315.598 58.683,315.500 58.500 C 315.402 58.317,315.372 58.167,315.433 58.167 C 315.495 58.167,315.354 58.017,315.121 57.833 C 314.888 57.650,314.578 57.500,314.432 57.500 C 314.286 57.500,314.185 57.408,314.208 57.296 C 314.231 57.183,314.083 57.066,313.878 57.034 C 313.674 57.003,313.372 56.814,313.207 56.614 C 312.870 56.205,311.721 55.350,311.903 55.644 C 312.074 55.921,311.899 55.875,311.583 55.559 C 311.431 55.407,311.378 55.240,311.465 55.184 C 311.550 55.129,311.370 54.963,311.065 54.815 C 310.759 54.667,310.549 54.611,310.598 54.690 C 310.874 55.137,310.310 54.737,309.980 54.251 C 309.604 53.700,309.386 53.585,308.852 53.659 C 308.706 53.680,308.658 53.596,308.722 53.429 C 308.778 53.285,308.756 53.167,308.675 53.167 C 308.594 53.167,308.427 53.128,308.305 53.081 C 308.183 53.034,307.983 53.156,307.861 53.351 " stroke="none" fill="#04548c" fill-rule="evenodd"></path><path id="path3" d="M98.174 45.792 C 90.237 45.820,85.705 45.895,85.599 46.001 C 85.489 46.111,89.659 46.167,97.949 46.167 C 108.920 46.167,110.476 46.136,110.560 45.917 C 110.613 45.779,110.640 45.685,110.620 45.707 C 110.600 45.730,104.999 45.768,98.174 45.792 M286.333 46.327 C 286.333 46.416,286.502 46.570,286.708 46.670 C 287.045 46.833,287.054 46.828,286.794 46.618 C 286.635 46.489,286.554 46.335,286.614 46.275 C 286.673 46.216,286.635 46.167,286.528 46.167 C 286.421 46.167,286.333 46.239,286.333 46.327 M297.392 49.166 C 297.025 49.314,296.707 49.670,296.948 49.663 C 297.023 49.661,297.271 49.513,297.500 49.333 C 297.955 48.977,297.935 48.946,297.392 49.166 M175.167 50.750 C 175.408 51.040,175.667 51.078,175.667 50.823 C 175.667 50.726,175.592 50.693,175.500 50.750 C 175.408 50.807,175.333 50.774,175.333 50.677 C 175.333 50.579,175.249 50.500,175.146 50.500 C 175.017 50.500,175.023 50.577,175.167 50.750 M171.417 55.500 L 164.583 55.589 171.365 55.628 C 175.749 55.653,178.183 55.608,178.250 55.500 C 178.307 55.408,178.330 55.351,178.302 55.372 C 178.273 55.394,175.175 55.451,171.417 55.500 M78.442 60.458 C 78.372 60.572,87.927 60.570,100.083 60.455 C 102.650 60.431,98.848 60.394,91.635 60.372 C 84.421 60.351,78.485 60.390,78.442 60.458 M211.083 60.455 C 222.805 60.570,231.833 60.572,231.833 60.458 C 231.833 60.390,226.152 60.351,219.208 60.372 C 212.265 60.394,208.608 60.431,211.083 60.455 M201.083 64.466 C 201.290 64.691,202.134 64.854,202.237 64.688 C 202.278 64.621,202.148 64.562,201.948 64.556 C 201.747 64.550,201.433 64.487,201.250 64.415 C 201.014 64.322,200.965 64.337,201.083 64.466 M203.167 65.000 C 203.167 65.196,203.295 65.196,203.750 65.000 C 204.045 64.873,204.031 64.855,203.625 64.845 C 203.373 64.839,203.167 64.908,203.167 65.000 " stroke="none" fill="#044c84" fill-rule="evenodd"></path><path id="path4" d="M176.180 40.948 C 176.159 41.258,176.508 41.394,176.723 41.161 C 176.874 40.997,176.855 40.973,176.636 41.049 C 176.481 41.104,176.318 41.058,176.274 40.949 C 176.212 40.796,176.190 40.795,176.180 40.948 M94.750 41.833 L 85.083 41.921 94.698 41.960 C 100.972 41.986,104.349 41.942,104.417 41.833 C 104.473 41.742,104.496 41.685,104.468 41.706 C 104.440 41.728,100.067 41.785,94.750 41.833 M241.609 41.875 C 241.652 41.944,248.727 42.000,257.333 42.000 C 265.939 42.000,273.015 41.944,273.058 41.875 C 273.100 41.806,266.024 41.750,257.333 41.750 C 248.643 41.750,241.567 41.806,241.609 41.875 M128.471 41.958 C 132.075 41.983,137.925 41.983,141.471 41.958 C 145.016 41.933,142.067 41.913,134.917 41.913 C 127.767 41.913,124.866 41.933,128.471 41.958 M210.208 41.958 C 213.027 41.984,217.640 41.984,220.458 41.958 C 223.277 41.933,220.971 41.912,215.333 41.912 C 209.696 41.912,207.390 41.933,210.208 41.958 M120.761 42.316 C 120.710 42.398,120.785 42.510,120.926 42.564 C 121.068 42.618,121.142 42.595,121.091 42.512 C 121.040 42.430,121.092 42.324,121.207 42.277 C 121.337 42.225,121.310 42.188,121.135 42.180 C 120.980 42.173,120.812 42.234,120.761 42.316 M174.997 42.421 C 174.881 42.560,174.834 42.723,174.893 42.782 C 174.952 42.841,175.000 42.793,175.000 42.677 C 175.000 42.556,175.108 42.506,175.250 42.560 C 175.402 42.619,175.500 42.561,175.500 42.411 C 175.500 42.094,175.264 42.099,174.997 42.421 M228.834 42.333 C 228.631 42.458,228.640 42.500,228.887 42.595 C 229.239 42.730,229.360 42.645,229.195 42.379 C 229.118 42.255,228.987 42.239,228.834 42.333 M282.013 42.468 C 282.006 42.588,281.926 42.641,281.835 42.585 C 281.739 42.525,281.714 42.595,281.774 42.753 C 281.842 42.929,281.934 42.966,282.041 42.859 C 282.131 42.769,282.164 42.596,282.115 42.473 C 282.044 42.294,282.024 42.293,282.013 42.468 M230.385 43.231 C 230.714 43.541,230.946 43.831,230.902 43.876 C 230.857 43.921,230.973 43.998,231.160 44.047 C 231.347 44.095,231.542 44.067,231.593 43.984 C 231.644 43.901,231.626 43.833,231.552 43.833 C 231.477 43.833,231.122 43.571,230.761 43.250 C 229.920 42.501,229.594 42.485,230.385 43.231 M108.832 43.081 C 108.945 43.218,109.105 43.288,109.188 43.237 C 109.401 43.105,109.198 42.833,108.886 42.833 C 108.675 42.833,108.664 42.880,108.832 43.081 M120.745 53.750 C 120.745 59.800,120.766 62.251,120.792 59.196 C 120.817 56.142,120.817 51.192,120.792 48.196 C 120.766 45.201,120.745 47.700,120.745 53.750 M79.838 43.327 C 79.703 43.412,79.643 43.532,79.705 43.594 C 79.767 43.656,79.939 43.585,80.087 43.437 C 80.381 43.143,80.232 43.078,79.838 43.327 M174.116 43.607 C 173.980 43.743,174.135 44.000,174.353 44.000 C 174.445 44.000,174.477 43.931,174.425 43.848 C 174.374 43.764,174.425 43.657,174.541 43.611 C 174.678 43.555,174.660 43.522,174.486 43.513 C 174.341 43.506,174.174 43.548,174.116 43.607 M79.193 43.958 C 79.208 44.027,79.161 44.218,79.089 44.382 C 78.925 44.760,79.132 44.991,79.340 44.662 C 79.546 44.336,79.542 43.833,79.333 43.833 C 79.242 43.833,79.179 43.890,79.193 43.958 M110.167 44.194 C 110.167 44.393,110.219 44.503,110.283 44.440 C 110.463 44.259,110.488 43.833,110.319 43.833 C 110.235 43.833,110.167 43.996,110.167 44.194 M153.108 43.960 C 153.065 44.030,153.128 44.222,153.249 44.387 C 153.375 44.559,153.511 44.616,153.570 44.521 C 153.626 44.431,153.595 44.309,153.500 44.250 C 153.405 44.191,153.371 44.074,153.424 43.988 C 153.477 43.903,153.445 43.833,153.353 43.833 C 153.261 43.833,153.151 43.890,153.108 43.960 M296.513 44.441 C 296.506 44.637,296.612 44.841,296.750 44.894 C 296.922 44.959,297.000 44.884,297.000 44.652 C 297.000 44.466,296.931 44.356,296.848 44.408 C 296.764 44.460,296.657 44.408,296.611 44.293 C 296.564 44.178,296.520 44.244,296.513 44.441 M231.500 44.740 C 231.500 45.251,231.595 45.292,231.715 44.833 C 231.763 44.650,231.734 44.458,231.651 44.407 C 231.568 44.356,231.500 44.506,231.500 44.740 M110.613 44.814 C 110.659 44.987,110.614 45.179,110.515 45.241 C 110.259 45.399,110.289 45.778,110.557 45.778 C 110.810 45.778,110.914 44.736,110.677 44.590 C 110.597 44.540,110.568 44.641,110.613 44.814 M284.333 44.823 C 284.333 45.044,284.437 45.162,284.625 45.154 C 284.801 45.146,284.834 45.107,284.707 45.056 C 284.592 45.010,284.537 44.908,284.585 44.831 C 284.633 44.753,284.596 44.643,284.503 44.585 C 284.409 44.527,284.333 44.633,284.333 44.823 M173.116 44.899 C 173.048 45.072,173.031 45.254,173.079 45.302 C 173.231 45.454,173.365 45.205,173.301 44.888 C 173.243 44.598,173.234 44.599,173.116 44.899 M153.538 45.365 C 153.641 45.674,154.000 45.725,154.000 45.431 C 154.000 45.285,153.881 45.167,153.736 45.167 C 153.591 45.167,153.502 45.256,153.538 45.365 M198.615 45.441 C 198.359 45.697,198.495 61.667,198.753 61.667 C 199.031 61.667,199.089 61.242,198.833 61.083 C 198.614 60.948,198.603 46.000,198.823 46.000 C 198.909 46.000,198.968 45.850,198.954 45.667 C 198.929 45.327,198.808 45.247,198.615 45.441 M180.005 45.641 C 180.016 45.860,180.459 46.333,180.653 46.333 C 180.763 46.333,180.807 46.408,180.750 46.500 C 180.693 46.592,180.726 46.667,180.823 46.667 C 181.112 46.667,181.029 46.494,180.500 46.000 C 180.225 45.743,180.002 45.582,180.005 45.641 M231.667 45.646 C 231.667 45.727,231.763 45.873,231.881 45.970 C 232.043 46.105,232.095 46.069,232.095 45.824 C 232.095 45.646,231.999 45.500,231.881 45.500 C 231.763 45.500,231.667 45.566,231.667 45.646 M78.618 46.000 C 78.666 46.183,78.772 46.333,78.853 46.333 C 78.934 46.333,79.000 46.183,79.000 46.000 C 79.000 45.817,78.895 45.667,78.766 45.667 C 78.613 45.667,78.562 45.783,78.618 46.000 M153.802 45.958 C 153.773 46.027,153.792 47.396,153.843 49.000 L 153.935 51.917 153.954 48.875 C 153.971 46.081,153.946 45.607,153.802 45.958 M172.181 46.250 C 172.154 46.625,172.784 47.369,172.892 47.089 C 172.952 46.930,172.894 46.782,172.748 46.726 C 172.613 46.674,172.551 46.553,172.610 46.457 C 172.670 46.360,172.639 46.331,172.540 46.392 C 172.442 46.453,172.324 46.408,172.277 46.293 C 172.231 46.178,172.188 46.158,172.181 46.250 M127.999 48.951 C 127.954 50.161,127.975 51.092,128.047 51.020 C 128.119 50.948,128.156 49.958,128.130 48.820 L 128.082 46.750 127.999 48.951 M205.833 53.367 C 205.787 57.006,205.807 59.926,205.877 59.856 C 205.947 59.787,205.984 56.809,205.960 53.240 L 205.916 46.750 205.833 53.367 M78.604 47.256 C 78.547 47.405,78.513 48.102,78.529 48.805 L 78.557 50.083 78.658 48.583 C 78.767 46.964,78.762 46.844,78.604 47.256 M181.833 48.225 C 181.833 48.355,181.983 48.500,182.167 48.548 C 182.350 48.596,182.500 48.570,182.500 48.490 C 182.500 48.410,182.350 48.265,182.167 48.167 C 181.906 48.027,181.833 48.040,181.833 48.225 M182.667 49.399 C 182.667 49.527,182.790 49.678,182.940 49.736 C 183.156 49.819,183.174 49.793,183.025 49.613 C 182.921 49.488,182.886 49.337,182.946 49.276 C 183.006 49.216,182.968 49.167,182.861 49.167 C 182.754 49.167,182.667 49.271,182.667 49.399 M262.702 51.625 L 262.667 53.500 256.125 53.503 C 252.189 53.504,249.484 53.569,249.333 53.667 C 249.170 53.772,251.385 53.828,255.750 53.828 C 259.417 53.828,262.513 53.767,262.631 53.692 C 262.790 53.591,262.831 53.069,262.791 51.653 L 262.738 49.750 262.702 51.625 M295.067 50.372 C 294.826 50.655,294.818 50.692,295.034 50.524 C 295.191 50.404,295.396 50.352,295.491 50.411 C 295.593 50.474,295.623 50.413,295.564 50.259 C 295.438 49.931,295.445 49.929,295.067 50.372 M146.544 50.852 C 146.517 51.220,146.756 51.274,146.888 50.930 C 146.938 50.801,146.887 50.659,146.774 50.615 C 146.659 50.572,146.558 50.676,146.544 50.852 M104.333 51.000 C 104.333 51.092,104.591 51.167,104.907 51.167 C 105.222 51.167,105.527 51.092,105.583 51.000 C 105.646 50.899,105.418 50.833,105.010 50.833 C 104.638 50.833,104.333 50.908,104.333 51.000 M107.667 51.172 C 107.667 51.411,108.020 51.547,108.192 51.374 C 108.299 51.268,108.236 51.180,108.011 51.121 C 107.822 51.072,107.667 51.095,107.667 51.172 M145.333 51.647 C 145.333 51.728,145.514 51.829,145.735 51.871 C 146.022 51.926,146.112 51.884,146.050 51.724 C 145.956 51.478,145.333 51.411,145.333 51.647 M144.633 52.033 C 144.789 52.189,144.878 52.189,145.033 52.033 C 145.189 51.878,145.144 51.833,144.833 51.833 C 144.522 51.833,144.478 51.878,144.633 52.033 M110.167 52.349 C 110.167 52.432,110.246 52.500,110.343 52.500 C 110.440 52.500,110.476 52.570,110.423 52.657 C 110.370 52.743,110.470 52.802,110.645 52.789 C 110.820 52.776,110.929 52.675,110.887 52.566 C 110.794 52.324,110.167 52.136,110.167 52.349 M153.613 52.285 C 153.563 52.366,153.583 52.531,153.657 52.651 C 153.759 52.817,153.821 52.821,153.915 52.670 C 153.982 52.560,153.963 52.396,153.871 52.304 C 153.778 52.211,153.664 52.203,153.613 52.285 M307.853 52.875 C 307.842 53.035,307.758 53.167,307.667 53.167 C 307.575 53.167,307.500 53.295,307.500 53.452 C 307.500 53.714,307.522 53.716,307.766 53.472 C 307.912 53.326,307.996 53.066,307.952 52.895 C 307.881 52.620,307.870 52.618,307.853 52.875 M185.500 53.316 C 185.500 53.591,186.007 53.893,186.178 53.722 C 186.286 53.614,186.198 53.492,185.921 53.366 C 185.690 53.260,185.500 53.238,185.500 53.316 M111.273 53.918 C 111.220 54.055,111.250 54.167,111.339 54.167 C 111.427 54.167,111.491 54.223,111.480 54.292 C 111.414 54.713,111.524 55.500,111.649 55.500 C 111.731 55.500,111.743 55.256,111.675 54.955 C 111.608 54.656,111.571 54.281,111.595 54.123 C 111.649 53.752,111.398 53.592,111.273 53.918 M186.444 54.278 C 186.237 54.485,186.332 54.646,186.648 54.622 C 186.832 54.608,186.929 54.509,186.881 54.383 C 186.790 54.146,186.617 54.105,186.444 54.278 M305.589 54.598 C 305.293 55.049,305.301 55.229,305.607 55.033 C 305.791 54.915,306.085 54.167,305.947 54.167 C 305.906 54.167,305.745 54.361,305.589 54.598 M310.182 54.528 C 310.368 54.877,310.593 54.921,310.766 54.641 C 310.840 54.522,310.812 54.494,310.692 54.567 C 310.582 54.636,310.500 54.587,310.500 54.454 C 310.500 54.327,310.392 54.222,310.259 54.222 C 310.077 54.222,310.058 54.297,310.182 54.528 M248.833 57.367 C 248.787 59.081,248.808 60.426,248.879 60.355 C 248.950 60.284,248.987 58.881,248.962 57.238 L 248.916 54.250 248.833 57.367 M311.505 55.357 C 311.499 55.688,311.943 55.893,312.104 55.634 C 312.171 55.525,312.143 55.495,312.036 55.561 C 311.936 55.623,311.776 55.541,311.682 55.379 C 311.531 55.119,311.510 55.116,311.505 55.357 M111.386 55.936 C 111.329 56.084,111.328 57.474,111.384 59.025 C 111.456 61.033,111.433 61.812,111.304 61.732 C 111.204 61.670,111.154 61.711,111.191 61.823 C 111.352 62.307,111.592 61.934,111.690 61.046 C 111.997 58.284,111.794 54.873,111.386 55.936 M304.078 55.842 C 303.920 56.098,304.137 56.263,304.351 56.049 C 304.470 55.930,304.473 55.836,304.359 55.766 C 304.266 55.708,304.140 55.742,304.078 55.842 M105.166 58.000 C 105.121 59.146,105.102 60.115,105.125 60.153 C 105.286 60.421,105.338 59.768,105.297 57.981 L 105.249 55.917 105.166 58.000 M188.000 56.177 C 188.000 56.274,187.918 56.302,187.817 56.240 C 187.688 56.160,187.690 56.231,187.823 56.480 C 188.018 56.845,188.333 56.960,188.333 56.667 C 188.333 56.575,188.261 56.500,188.172 56.500 C 188.083 56.500,188.054 56.387,188.106 56.250 C 188.159 56.112,188.157 56.000,188.101 56.000 C 188.046 56.000,188.000 56.079,188.000 56.177 M313.250 56.667 C 313.416 56.850,313.671 56.991,313.817 56.981 C 314.034 56.965,314.029 56.947,313.792 56.885 C 313.631 56.843,313.500 56.702,313.500 56.571 C 313.500 56.440,313.376 56.333,313.224 56.333 C 312.976 56.333,312.979 56.367,313.250 56.667 M302.762 56.987 C 302.443 57.339,302.563 57.447,302.979 57.183 C 303.104 57.104,303.177 56.949,303.141 56.840 C 303.098 56.711,302.964 56.764,302.762 56.987 M128.000 60.867 C 127.954 63.131,127.974 64.926,128.045 64.856 C 128.115 64.785,128.153 62.932,128.128 60.739 L 128.083 56.750 128.000 60.867 M163.080 57.177 C 162.930 57.650,163.097 57.775,163.320 57.358 C 163.429 57.155,163.439 56.982,163.346 56.924 C 163.260 56.872,163.141 56.985,163.080 57.177 M189.125 57.944 C 189.240 57.990,189.333 58.172,189.333 58.347 C 189.333 58.523,189.408 58.667,189.500 58.667 C 189.592 58.667,189.667 58.569,189.667 58.450 C 189.667 58.183,189.329 57.829,189.092 57.846 C 188.995 57.854,189.010 57.897,189.125 57.944 M161.833 58.500 C 161.696 58.589,161.658 58.664,161.750 58.667 C 161.842 58.669,161.806 58.742,161.671 58.827 C 161.537 58.912,161.482 59.037,161.549 59.105 C 161.701 59.256,162.050 58.927,162.100 58.585 C 162.144 58.290,162.153 58.293,161.833 58.500 M305.741 60.348 C 305.589 60.594,305.746 60.703,306.159 60.638 C 306.509 60.584,306.509 60.581,306.181 60.378 C 305.955 60.239,305.814 60.229,305.741 60.348 M190.940 60.583 C 190.992 60.721,191.103 60.833,191.184 60.833 C 191.266 60.833,191.333 60.721,191.333 60.583 C 191.333 60.446,191.223 60.333,191.089 60.333 C 190.939 60.333,190.881 60.431,190.940 60.583 M249.005 60.637 C 248.988 61.339,248.892 61.333,261.149 61.333 L 272.822 61.333 272.879 63.125 L 272.935 64.917 272.926 63.000 L 272.917 61.083 261.184 61.041 C 250.253 61.001,249.437 60.978,249.231 60.707 C 249.082 60.511,249.009 60.488,249.005 60.637 M77.576 61.542 C 77.520 61.688,77.552 61.953,77.648 62.132 C 77.743 62.310,77.787 62.491,77.744 62.534 C 77.702 62.576,77.779 62.611,77.917 62.611 C 78.233 62.611,78.231 62.540,77.904 62.214 C 77.693 62.002,77.684 61.925,77.861 61.816 C 78.033 61.710,78.037 61.637,77.879 61.479 C 77.722 61.322,77.655 61.335,77.576 61.542 M193.145 63.042 C 193.295 63.233,193.310 63.333,193.187 63.333 C 192.930 63.333,192.951 63.612,193.216 63.714 C 193.539 63.838,193.524 63.225,193.197 62.969 C 192.945 62.772,192.940 62.780,193.145 63.042 M322.449 63.646 C 322.521 63.703,322.624 63.810,322.679 63.883 C 322.734 63.956,322.868 63.909,322.976 63.779 C 323.138 63.584,323.096 63.542,322.746 63.542 C 322.511 63.542,322.378 63.589,322.449 63.646 M106.298 64.867 C 106.420 65.019,106.653 65.095,106.839 65.047 C 107.245 64.941,107.273 64.795,106.875 64.860 C 106.715 64.887,106.471 64.840,106.333 64.756 C 106.123 64.627,106.117 64.644,106.298 64.867 M322.667 64.917 C 322.667 65.054,322.742 65.167,322.833 65.167 C 322.925 65.167,323.000 65.054,323.000 64.917 C 323.000 64.779,322.925 64.667,322.833 64.667 C 322.742 64.667,322.667 64.779,322.667 64.917 " stroke="none" fill="#045484" fill-rule="evenodd"></path></g></svg>