<svg version="1.1" id="Layer_1" xmlns="http://www.w3.org/2000/svg" xmlns:xlink="http://www.w3.org/1999/xlink" x="0px" y="0px"
	 width="100%" viewBox="0 0 1500 409" enable-background="new 0 0 1500 409" xml:space="preserve">
<path fill="#000000" opacity="1.000000" stroke="none" 
	d="
M1072.000000,410.000000 
	C714.713379,410.000000 357.926697,410.000000 1.070028,410.000000 
	C1.070028,273.731232 1.070028,137.462387 1.070028,1.096783 
	C501.000000,1.096783 1001.000000,1.096783 1500.971680,1.096783 
	C1500.971680,137.406754 1500.971680,273.703369 1500.971680,410.000000 
	C1358.128906,410.000000 1215.314453,410.000000 1072.000000,410.000000 
M985.950256,201.089767 
	C985.950256,196.507614 985.950256,191.925476 985.950256,187.390594 
	C959.233765,187.390594 933.349792,187.390594 907.346191,187.390594 
	C907.346191,206.670792 907.346191,225.558960 907.346191,244.540588 
	C946.355469,244.540588 985.016907,244.540588 1023.569214,244.540588 
	C1023.569214,239.505264 1023.569214,234.940338 1023.569214,230.000732 
	C1018.666199,230.000732 1014.190430,230.000793 1009.714600,230.000717 
	C986.567871,230.000305 963.420410,230.076035 940.275513,229.867752 
	C938.225952,229.849319 934.503601,228.092560 934.426575,226.949875 
	C933.924683,219.502182 934.176208,212.000290 934.324646,204.519012 
	C934.335999,203.947632 935.451660,203.398163 936.978394,202.957199 
	C951.907898,202.971283 966.837463,203.010727 981.766663,202.956665 
	C983.124146,202.951752 984.479431,202.346359 985.950256,201.089767 
M1397.051392,108.997971 
	C1392.455566,109.327980 1387.842285,109.502266 1383.266968,110.015694 
	C1366.032471,111.949753 1348.755371,113.616127 1331.599976,116.110817 
	C1316.482788,118.309135 1301.293213,120.642464 1286.517700,124.413055 
	C1263.466919,130.295364 1240.455688,136.614731 1217.960327,144.306396 
	C1198.531128,150.949707 1179.562012,159.152710 1160.901611,167.774796 
	C1138.609863,178.074753 1117.511841,190.650131 1097.510986,204.981125 
	C1082.555298,215.697052 1067.957397,226.832169 1055.300903,240.256958 
	C1058.454590,244.999878 1058.454590,245.000763 1063.732666,245.001160 
	C1072.565063,245.001816 1081.399658,245.107422 1090.227783,244.911255 
	C1091.987061,244.872162 1094.075195,244.091599 1095.410034,242.949600 
	C1106.155151,233.757172 1116.592041,224.199951 1127.435547,215.127823 
	C1149.667603,196.527863 1174.278198,181.463089 1199.890625,168.102615 
	C1231.741699,151.487808 1265.217896,138.834229 1299.752319,128.986481 
	C1332.109985,119.759491 1364.934937,112.886383 1399.200928,109.206039 
	C1401.776123,109.052849 1404.351440,108.899666 1406.926636,108.746475 
	C1406.886963,108.378700 1406.847290,108.010933 1406.807739,107.643166 
	C1403.864258,108.086517 1400.920776,108.529861 1397.051392,108.997971 
M415.962830,169.826538 
	C414.243408,167.528656 412.991028,164.091919 410.712463,163.157410 
	C405.041077,160.831390 398.930939,158.359726 392.946136,158.226303 
	C368.640106,157.684479 344.314697,157.948914 319.997040,158.055084 
	C316.223145,158.071548 312.357269,158.418854 308.701538,159.304764 
	C302.507629,160.805801 297.719666,164.368286 297.066162,171.189972 
	C296.388947,178.259033 295.730652,185.447128 296.330200,192.475128 
	C296.662872,196.374573 298.910400,200.615341 301.490692,203.702896 
	C305.604767,208.625732 312.049561,208.865356 317.945160,208.919174 
	C339.929596,209.119904 361.917053,209.042801 383.903168,208.984787 
	C396.963867,208.950333 396.061768,208.296738 395.996429,221.192566 
	C395.965057,227.384216 395.357391,227.993423 389.016968,227.995956 
	C359.368835,228.007767 329.720703,228.000641 300.072571,228.002106 
	C298.740173,228.002182 297.392334,227.893784 296.078400,228.054367 
	C292.925781,228.439651 291.671997,229.549576 292.520050,233.339188 
	C294.148590,240.616440 302.201538,244.775543 311.375885,244.875229 
	C340.853973,245.195526 370.340820,245.226227 399.817078,244.830734 
	C407.223816,244.731369 414.861694,242.924438 418.065277,234.590271 
	C418.987518,232.191132 419.511261,229.468658 419.477997,226.904037 
	C419.375336,218.997955 419.748840,210.945435 418.351959,203.237106 
	C417.038269,195.988022 409.169861,192.029388 399.357300,192.012848 
	C377.204529,191.975525 355.051605,191.961014 332.898895,192.013977 
	C318.401520,192.048630 320.103119,193.048935 319.979218,178.111755 
	C319.954285,175.108459 321.197052,173.889664 324.160461,173.980057 
	C327.821350,174.091721 331.488373,173.998947 335.152740,173.998779 
	C360.303680,173.997589 385.454620,174.005783 410.605560,173.983902 
	C413.027679,173.981796 415.939056,174.579422 415.962830,169.826538 
M530.500000,211.000000 
	C540.330811,210.999481 550.178223,211.355209 559.987610,210.896164 
	C569.412048,210.455139 575.914795,206.518112 577.408569,199.091400 
	C577.699097,197.646835 577.952881,196.167389 577.972290,194.700699 
	C578.040649,189.536270 577.710571,184.351166 578.052612,179.208542 
	C579.213196,161.759689 569.999695,158.486328 557.168396,158.221939 
	C525.023682,157.559570 492.856110,157.981995 460.697784,158.024796 
	C455.410583,158.031830 454.010193,159.563553 454.007050,164.894989 
	C453.992340,189.888550 453.995239,214.882126 454.013275,239.875671 
	C454.014435,241.468384 454.196747,243.060959 454.291351,244.598038 
	C463.433289,244.598038 472.000000,244.598038 480.999878,244.598038 
	C480.999878,235.897476 480.996979,227.593124 481.000702,219.288773 
	C481.004395,211.063339 481.066467,211.002502 489.510315,211.000748 
	C502.840210,210.997971 516.170105,211.000000 530.500000,211.000000 
M747.822205,167.557846 
	C747.214783,170.597809 746.113586,173.632645 746.082031,176.678574 
	C745.909729,193.342407 745.982971,210.008987 746.024780,226.674500 
	C746.029297,228.474670 746.200073,230.313065 746.591675,232.067200 
	C748.677246,241.409836 755.061279,244.688507 766.300110,244.859238 
	C794.125183,245.281937 821.961853,245.095291 849.791870,244.890305 
	C853.820007,244.860657 857.990051,243.815994 861.823547,242.469650 
	C867.393677,240.513336 870.371521,234.463440 869.299255,228.001755 
	C867.426270,228.001755 865.460632,228.001770 863.494995,228.001755 
	C835.663452,228.001602 807.831848,228.008453 780.000305,227.996017 
	C773.648071,227.993179 773.016968,227.380707 773.006836,221.198288 
	C772.985046,207.865845 772.996216,194.533325 773.001465,181.200836 
	C773.004272,174.053436 773.037170,174.007172 780.326721,174.004791 
	C808.491577,173.995605 836.656494,174.000870 864.821350,174.000748 
	C866.734985,174.000748 868.648560,174.000748 870.712708,174.000748 
	C869.929321,165.752670 865.619080,161.206589 858.573059,159.399155 
	C854.931152,158.464951 851.058289,158.075455 847.287048,158.059189 
	C821.455811,157.947891 795.623657,157.948822 769.792419,158.058136 
	C766.020020,158.074081 762.138611,158.435608 758.509644,159.398651 
	C754.256653,160.527298 749.782654,161.877487 747.822205,167.557846 
M650.486511,179.062637 
	C655.985535,186.870087 661.547974,194.634201 666.935547,202.517838 
	C668.164612,204.316177 668.789734,206.527252 669.692810,208.548370 
	C667.532166,209.032364 665.375183,209.915833 663.210327,209.935501 
	C649.226685,210.062607 635.240723,209.939743 621.257263,210.076630 
	C619.441406,210.094391 617.059937,210.592148 615.928894,211.796143 
	C611.928955,216.054108 608.358459,220.715393 603.981750,226.000732 
	C606.823181,226.000732 608.604309,226.000717 610.385498,226.000732 
	C632.528076,226.000824 654.671143,225.936386 676.812683,226.091522 
	C679.281433,226.108810 682.453003,226.639328 684.068054,228.202942 
	C688.386292,232.383514 691.997375,237.288681 695.975037,241.830978 
	C697.005005,243.007187 698.328369,244.768738 699.553101,244.798935 
	C709.410889,245.042007 719.277222,244.935043 730.337891,244.935043 
	C707.584534,214.198212 685.602112,184.502838 663.102295,154.108566 
	C658.349915,160.042847 654.500549,165.597610 649.859924,170.385422 
	C646.682129,173.664047 647.088745,175.859558 650.486511,179.062637 
M926.500488,158.000183 
	C920.091187,158.000183 913.681824,158.000183 907.440918,158.000183 
	C907.440918,164.183472 907.440918,169.417862 907.440918,174.616959 
	C946.761169,174.616959 985.639343,174.616959 1024.647705,174.616959 
	C1024.647705,169.000366 1024.647705,163.770828 1024.647705,158.000183 
	C992.032410,158.000183 959.766357,158.000183 926.500488,158.000183 
M1171.942505,210.520172 
	C1166.746094,206.828003 1161.549805,203.135834 1156.067871,199.240860 
	C1148.655151,205.104279 1141.236328,210.972549 1133.389160,217.179565 
	C1146.077271,226.331268 1158.060547,234.993225 1170.079468,243.605499 
	C1170.972046,244.245132 1172.117432,244.910660 1173.150146,244.918350 
	C1185.284058,245.008667 1197.419556,245.023697 1209.552612,244.885086 
	C1210.545166,244.873749 1211.978394,243.781830 1212.366699,242.844055 
	C1212.687134,242.070435 1212.024170,240.544876 1211.328857,239.775345 
	C1210.246460,238.577179 1208.778076,237.722672 1207.454590,236.747925 
	C1195.798706,228.163361 1184.138794,219.584488 1171.942505,210.520172 
M1072.647583,172.879074 
	C1080.415405,178.427673 1088.500244,183.594406 1095.827026,189.674545 
	C1099.930908,193.080185 1102.691650,193.504471 1107.228882,190.560959 
	C1113.796021,186.300461 1121.005737,183.030228 1128.508911,179.035339 
	C1118.856689,171.874100 1109.789307,165.120483 1100.668213,158.439987 
	C1100.079712,158.009003 1099.078735,158.030533 1098.269287,158.028824 
	C1086.450317,158.003784 1074.630249,157.938950 1062.813843,158.111206 
	C1061.507080,158.130249 1059.504028,159.303772 1059.135254,160.387924 
	C1058.796265,161.384567 1059.894653,163.389877 1060.938477,164.242599 
	C1064.503296,167.154877 1068.322998,169.755005 1072.647583,172.879074 
z"/>
<path fill="#005288" opacity="1.000000" stroke="none" 
	d="
M415.967102,170.237671 
	C415.939056,174.579422 413.027679,173.981796 410.605560,173.983902 
	C385.454620,174.005783 360.303680,173.997589 335.152740,173.998779 
	C331.488373,173.998947 327.821350,174.091721 324.160461,173.980057 
	C321.197052,173.889664 319.954285,175.108459 319.979218,178.111755 
	C320.103119,193.048935 318.401520,192.048630 332.898895,192.013977 
	C355.051605,191.961014 377.204529,191.975525 399.357300,192.012848 
	C409.169861,192.029388 417.038269,195.988022 418.351959,203.237106 
	C419.748840,210.945435 419.375336,218.997955 419.477997,226.904037 
	C419.511261,229.468658 418.987518,232.191132 418.065277,234.590271 
	C414.861694,242.924438 407.223816,244.731369 399.817078,244.830734 
	C370.340820,245.226227 340.853973,245.195526 311.375885,244.875229 
	C302.201538,244.775543 294.148590,240.616440 292.520050,233.339188 
	C291.671997,229.549576 292.925781,228.439651 296.078400,228.054367 
	C297.392334,227.893784 298.740173,228.002182 300.072571,228.002106 
	C329.720703,228.000641 359.368835,228.007767 389.016968,227.995956 
	C395.357391,227.993423 395.965057,227.384216 395.996429,221.192566 
	C396.061768,208.296738 396.963867,208.950333 383.903168,208.984787 
	C361.917053,209.042801 339.929596,209.119904 317.945160,208.919174 
	C312.049561,208.865356 305.604767,208.625732 301.490692,203.702896 
	C298.910400,200.615341 296.662872,196.374573 296.330200,192.475128 
	C295.730652,185.447128 296.388947,178.259033 297.066162,171.189972 
	C297.719666,164.368286 302.507629,160.805801 308.701538,159.304764 
	C312.357269,158.418854 316.223145,158.071548 319.997040,158.055084 
	C344.314697,157.948914 368.640106,157.684479 392.946136,158.226303 
	C398.930939,158.359726 405.041077,160.831390 410.712463,163.157410 
	C412.991028,164.091919 414.243408,167.528656 415.967102,170.237671 
z"/>
<path fill="#005288" opacity="1.000000" stroke="none" 
	d="
M530.000000,211.000000 
	C516.170105,211.000000 502.840210,210.997971 489.510315,211.000748 
	C481.066467,211.002502 481.004395,211.063339 481.000702,219.288773 
	C480.996979,227.593124 480.999878,235.897476 480.999878,244.598038 
	C472.000000,244.598038 463.433289,244.598038 454.291351,244.598038 
	C454.196747,243.060959 454.014435,241.468384 454.013275,239.875671 
	C453.995239,214.882126 453.992340,189.888550 454.007050,164.894989 
	C454.010193,159.563553 455.410583,158.031830 460.697784,158.024796 
	C492.856110,157.981995 525.023682,157.559570 557.168396,158.221939 
	C569.999695,158.486328 579.213196,161.759689 578.052612,179.208542 
	C577.710571,184.351166 578.040649,189.536270 577.972290,194.700699 
	C577.952881,196.167389 577.699097,197.646835 577.408569,199.091400 
	C575.914795,206.518112 569.412048,210.455139 559.987610,210.896164 
	C550.178223,211.355209 540.330811,210.999481 530.000000,211.000000 
M541.233765,173.440186 
	C540.419128,173.299057 539.604675,173.036057 538.789856,173.034775 
	C521.490417,173.007645 504.190887,172.992355 486.891571,173.042404 
	C485.611725,173.046112 484.333374,173.561035 482.345581,174.256744 
	C481.983246,180.598999 481.420166,186.943222 481.481628,193.281357 
	C481.490540,194.200073 484.485504,195.859634 486.111267,195.875320 
	C505.098145,196.058731 524.088989,196.110565 543.074097,195.851105 
	C545.588013,195.816742 549.857727,194.295288 550.242188,192.715042 
	C551.406555,187.929810 551.848450,182.651703 551.076904,177.803543 
	C550.337280,173.156204 545.449402,174.232025 541.233765,173.440186 
z"/>
<path fill="#005288" opacity="1.000000" stroke="none" 
	d="
M747.944458,167.186371 
	C749.782654,161.877487 754.256653,160.527298 758.509644,159.398651 
	C762.138611,158.435608 766.020020,158.074081 769.792419,158.058136 
	C795.623657,157.948822 821.455811,157.947891 847.287048,158.059189 
	C851.058289,158.075455 854.931152,158.464951 858.573059,159.399155 
	C865.619080,161.206589 869.929321,165.752670 870.712708,174.000748 
	C868.648560,174.000748 866.734985,174.000748 864.821350,174.000748 
	C836.656494,174.000870 808.491577,173.995605 780.326721,174.004791 
	C773.037170,174.007172 773.004272,174.053436 773.001465,181.200836 
	C772.996216,194.533325 772.985046,207.865845 773.006836,221.198288 
	C773.016968,227.380707 773.648071,227.993179 780.000305,227.996017 
	C807.831848,228.008453 835.663452,228.001602 863.494995,228.001755 
	C865.460632,228.001770 867.426270,228.001755 869.299255,228.001755 
	C870.371521,234.463440 867.393677,240.513336 861.823547,242.469650 
	C857.990051,243.815994 853.820007,244.860657 849.791870,244.890305 
	C821.961853,245.095291 794.125183,245.281937 766.300110,244.859238 
	C755.061279,244.688507 748.677246,241.409836 746.591675,232.067200 
	C746.200073,230.313065 746.029297,228.474670 746.024780,226.674500 
	C745.982971,210.008987 745.909729,193.342407 746.082031,176.678574 
	C746.113586,173.632645 747.214783,170.597809 747.944458,167.186371 
z"/>
<path fill="#A7A9AC" opacity="1.000000" stroke="none" 
	d="
M1398.464966,109.621536 
	C1364.934937,112.886383 1332.109985,119.759491 1299.752319,128.986481 
	C1265.217896,138.834229 1231.741699,151.487808 1199.890625,168.102615 
	C1174.278198,181.463089 1149.667603,196.527863 1127.435547,215.127823 
	C1116.592041,224.199951 1106.155151,233.757172 1095.410034,242.949600 
	C1094.075195,244.091599 1091.987061,244.872162 1090.227783,244.911255 
	C1081.399658,245.107422 1072.565063,245.001816 1063.732666,245.001160 
	C1058.454590,245.000763 1058.454590,244.999878 1055.300903,240.256958 
	C1067.957397,226.832169 1082.555298,215.697052 1097.510986,204.981125 
	C1117.511841,190.650131 1138.609863,178.074753 1160.901611,167.774796 
	C1179.562012,159.152710 1198.531128,150.949707 1217.960327,144.306396 
	C1240.455688,136.614731 1263.466919,130.295364 1286.517700,124.413055 
	C1301.293213,120.642464 1316.482788,118.309135 1331.599976,116.110817 
	C1348.755371,113.616127 1366.032471,111.949753 1383.266968,110.015694 
	C1387.842285,109.502266 1392.455566,109.327980 1397.635742,109.148102 
	C1398.220093,109.298241 1398.464966,109.621536 1398.464966,109.621536 
z"/>
<path fill="#005288" opacity="1.000000" stroke="none" 
	d="
M936.054016,202.838516 
	C935.451660,203.398163 934.335999,203.947632 934.324646,204.519012 
	C934.176208,212.000290 933.924683,219.502182 934.426575,226.949875 
	C934.503601,228.092560 938.225952,229.849319 940.275513,229.867752 
	C963.420410,230.076035 986.567871,230.000305 1009.714600,230.000717 
	C1014.190430,230.000793 1018.666199,230.000732 1023.569214,230.000732 
	C1023.569214,234.940338 1023.569214,239.505264 1023.569214,244.540588 
	C985.016907,244.540588 946.355469,244.540588 907.346191,244.540588 
	C907.346191,225.558960 907.346191,206.670792 907.346191,187.390594 
	C933.349792,187.390594 959.233765,187.390594 985.950256,187.390594 
	C985.950256,191.925476 985.950256,196.507614 985.435425,201.550446 
	C970.560730,202.007446 956.200745,201.972382 941.841125,202.037369 
	C939.910950,202.046112 937.982971,202.559052 936.054016,202.838516 
z"/>
<path fill="#005288" opacity="1.000000" stroke="none" 
	d="
M650.244629,178.794281 
	C647.088745,175.859558 646.682129,173.664047 649.859924,170.385422 
	C654.500549,165.597610 658.349915,160.042847 663.102295,154.108566 
	C685.602112,184.502838 707.584534,214.198212 730.337891,244.935043 
	C719.277222,244.935043 709.410889,245.042007 699.553101,244.798935 
	C698.328369,244.768738 697.005005,243.007187 695.975037,241.830978 
	C691.997375,237.288681 688.386292,232.383514 684.068054,228.202942 
	C682.453003,226.639328 679.281433,226.108810 676.812683,226.091522 
	C654.671143,225.936386 632.528076,226.000824 610.385498,226.000732 
	C608.604309,226.000717 606.823181,226.000732 603.981750,226.000732 
	C608.358459,220.715393 611.928955,216.054108 615.928894,211.796143 
	C617.059937,210.592148 619.441406,210.094391 621.257263,210.076630 
	C635.240723,209.939743 649.226685,210.062607 663.210327,209.935501 
	C665.375183,209.915833 667.532166,209.032364 669.692810,208.548370 
	C668.789734,206.527252 668.164612,204.316177 666.935547,202.517838 
	C661.547974,194.634201 655.985535,186.870087 650.244629,178.794281 
z"/>
<path fill="#005288" opacity="1.000000" stroke="none" 
	d="
M927.000366,158.000183 
	C959.766357,158.000183 992.032410,158.000183 1024.647705,158.000183 
	C1024.647705,163.770828 1024.647705,169.000366 1024.647705,174.616959 
	C985.639343,174.616959 946.761169,174.616959 907.440918,174.616959 
	C907.440918,169.417862 907.440918,164.183472 907.440918,158.000183 
	C913.681824,158.000183 920.091187,158.000183 927.000366,158.000183 
z"/>
<path fill="#005288" opacity="1.000000" stroke="none" 
	d="
M1172.211304,210.762024 
	C1184.138794,219.584488 1195.798706,228.163361 1207.454590,236.747925 
	C1208.778076,237.722672 1210.246460,238.577179 1211.328857,239.775345 
	C1212.024170,240.544876 1212.687134,242.070435 1212.366699,242.844055 
	C1211.978394,243.781830 1210.545166,244.873749 1209.552612,244.885086 
	C1197.419556,245.023697 1185.284058,245.008667 1173.150146,244.918350 
	C1172.117432,244.910660 1170.972046,244.245132 1170.079468,243.605499 
	C1158.060547,234.993225 1146.077271,226.331268 1133.389160,217.179565 
	C1141.236328,210.972549 1148.655151,205.104279 1156.067871,199.240860 
	C1161.549805,203.135834 1166.746094,206.828003 1172.211304,210.762024 
z"/>
<path fill="#005288" opacity="1.000000" stroke="none" 
	d="
M1072.346558,172.676666 
	C1068.322998,169.755005 1064.503296,167.154877 1060.938477,164.242599 
	C1059.894653,163.389877 1058.796265,161.384567 1059.135254,160.387924 
	C1059.504028,159.303772 1061.507080,158.130249 1062.813843,158.111206 
	C1074.630249,157.938950 1086.450317,158.003784 1098.269287,158.028824 
	C1099.078735,158.030533 1100.079712,158.009003 1100.668213,158.439987 
	C1109.789307,165.120483 1118.856689,171.874100 1128.508911,179.035339 
	C1121.005737,183.030228 1113.796021,186.300461 1107.228882,190.560959 
	C1102.691650,193.504471 1099.930908,193.080185 1095.827026,189.674545 
	C1088.500244,183.594406 1080.415405,178.427673 1072.346558,172.676666 
z"/>
<path fill="#007F7F" opacity="1.000000" stroke="none" 
	d="
M936.516235,202.897858 
	C937.982971,202.559052 939.910950,202.046112 941.841125,202.037369 
	C956.200745,201.972382 970.560730,202.007446 985.378174,202.015472 
	C984.479431,202.346359 983.124146,202.951752 981.766663,202.956665 
	C966.837463,203.010727 951.907898,202.971283 936.516235,202.897858 
z"/>
<path fill="#A7A9AC" opacity="1.000000" stroke="none" 
	d="
M1398.098633,109.135727 
	C1400.920776,108.529861 1403.864258,108.086517 1406.807739,107.643166 
	C1406.847290,108.010933 1406.886963,108.378700 1406.926636,108.746475 
	C1404.351440,108.899666 1401.776123,109.052849 1398.833008,109.413788 
	C1398.464966,109.621536 1398.220093,109.298241 1398.098633,109.135727 
z"/>
<path fill="#000000" opacity="1.000000" stroke="none" 
	d="
M541.945618,173.838058 
	C545.449402,174.232025 550.337280,173.156204 551.076904,177.803543 
	C551.848450,182.651703 551.406555,187.929810 550.242188,192.715042 
	C549.857727,194.295288 545.588013,195.816742 543.074097,195.851105 
	C524.088989,196.110565 505.098145,196.058731 486.111267,195.875320 
	C484.485504,195.859634 481.490540,194.200073 481.481628,193.281357 
	C481.420166,186.943222 481.983246,180.598999 483.162231,174.106979 
	C503.301117,173.917496 522.623352,173.877777 541.945618,173.838058 
z"/>
<path fill="#007F7F" opacity="1.000000" stroke="none" 
	d="
M541.589722,173.639130 
	C522.623352,173.877777 503.301117,173.917496 483.516602,173.897766 
	C484.333374,173.561035 485.611725,173.046112 486.891571,173.042404 
	C504.190887,172.992355 521.490417,173.007645 538.789856,173.034775 
	C539.604675,173.036057 540.419128,173.299057 541.589722,173.639130 
z"/>
</svg>